<svg width="77" height="77" viewBox="0 0 77 77" fill="none" xmlns="http://www.w3.org/2000/svg">
<g clip-path="url(#clip0_98_2028)">
<path d="M26.1792 18.1321V20.4024C32.8744 20.4024 38.3216 25.8494 38.3216 32.5448H40.5919C40.5917 24.5976 34.1264 18.1321 26.1792 18.1321Z" fill="#2B9DD4"/>
<path d="M14.0369 32.5447H11.7666C11.7666 40.4919 18.232 46.9574 26.1793 46.9574V44.6871C19.4839 44.6869 14.0369 39.2399 14.0369 32.5447Z" fill="#2B9DD4"/>
<path d="M26.1793 21.9255C20.3238 21.9255 15.5601 26.6892 15.5601 32.5446C15.5601 38.3999 20.3238 43.1636 26.1793 43.1636C32.0347 43.1636 36.7984 38.3999 36.7984 32.5446C36.7985 26.6892 32.0347 21.9255 26.1793 21.9255ZM26.1793 40.8935C21.5757 40.8935 17.8302 37.1482 17.8302 32.5446C17.8302 27.9411 21.5755 24.1958 26.1793 24.1958C30.783 24.1958 34.5282 27.9411 34.5282 32.5446C34.5282 37.1482 30.7829 40.8935 26.1793 40.8935Z" fill="#2B9DD4"/>
<path d="M26.1793 27.9536C23.6477 27.9536 21.5881 30.0132 21.5881 32.5447C21.5881 35.0762 23.6477 37.1358 26.1793 37.1358C28.7108 37.1358 30.7704 35.0762 30.7704 32.5447C30.7704 30.0132 28.7108 27.9536 26.1793 27.9536ZM26.1793 34.8655C24.8996 34.8655 23.8584 33.8244 23.8584 32.5447C23.8584 31.265 24.8996 30.2238 26.1793 30.2238C27.4589 30.2238 28.5001 31.265 28.5001 32.5447C28.5001 33.8244 27.4589 34.8655 26.1793 34.8655Z" fill="#2B9DD4"/>
<path d="M66.024 65.2534L71.5745 59.703L68.9918 57.1203C69.3538 56.4294 69.6523 55.709 69.8851 54.9657H73.5369V47.1159H69.8851C69.6523 46.3724 69.354 45.6521 68.9918 44.9612L71.5745 42.3786L66.024 36.8281L63.4413 39.4108C62.7504 39.0488 62.0301 38.7503 61.2867 38.5174V34.8655H53.437V38.5173C52.6935 38.7501 51.9733 39.0485 51.2824 39.4106L48.6997 36.828L48.4056 37.1221V27.4974H43.4022C43.0405 26.2603 42.5462 25.0679 41.9262 23.936L45.4645 20.3975L38.3269 13.2596L34.7883 16.7982C33.6563 16.178 32.464 15.6836 31.2269 15.3219V10.3186H21.1325V15.3218C19.8954 15.6835 18.7031 16.1778 17.5711 16.798L14.032 13.2595L6.89401 20.3975L10.4326 23.936C9.81234 25.068 9.31801 26.2603 8.95632 27.4974H3.95312V37.5918H8.95632C9.31801 38.8289 9.81234 40.0215 10.4326 41.1532L6.89401 44.6917L14.0319 51.8296L17.5704 48.291C18.7024 48.9112 19.8947 49.4056 21.1318 49.7673V54.7705H31.2262V49.7673C32.4631 49.4056 33.6556 48.9112 34.7876 48.291L38.3261 51.8296L41.1862 48.9693V54.9651H44.838C45.0708 55.7086 45.3692 56.4288 45.7313 57.1197L43.1487 59.7024L48.6991 65.2528L51.2818 62.6702C51.9727 63.0322 52.6931 63.3307 53.4365 63.5635V67.2151H61.2861V63.5635C62.0296 63.3307 62.7498 63.0323 63.4407 62.6702L66.024 65.2534ZM38.3264 48.6192L35.142 45.4347L34.3787 45.9043C32.9669 46.7725 31.4361 47.407 29.8283 47.7905L28.9563 47.9984V52.5006H23.4025V47.9984L22.5306 47.7905C20.9226 47.4072 19.3916 46.7725 17.9804 45.9043L17.2168 45.4347L14.0323 48.6192L10.105 44.6919L13.2897 41.5074L12.8199 40.7438C11.9517 39.3326 11.3172 37.8017 10.9337 36.1936L10.7258 35.3216H6.22342V29.7679H10.7257L10.9335 28.8959C11.3169 27.2878 11.9515 25.757 12.8197 24.3457L13.2895 23.5822L10.1047 20.3975L14.032 16.4702L17.2165 19.6547L17.9801 19.185C19.3915 18.3168 20.9223 17.6823 22.5303 17.2988L23.4022 17.091V12.5889H28.9562V17.0911L29.8281 17.299C31.4361 17.6823 32.9671 18.317 34.3784 19.1852L35.1419 19.6549L38.3264 16.4703L42.2536 20.3976L39.069 23.5822L39.5387 24.3457C40.4069 25.7571 41.0413 27.2878 41.4248 28.8959L41.6326 29.7679H46.135V35.3216H41.6326L41.4248 36.1936C41.0414 37.8017 40.4068 39.3326 39.5387 40.7438L39.069 41.5074L42.2536 44.6919L38.3264 48.6192ZM47.9355 37.5919L43.1499 42.3775L41.9257 41.1533C42.5459 40.0214 43.0401 38.8292 43.4018 37.5919H47.9355ZM45.4633 44.6928L45.7315 44.9609C45.3695 45.6518 45.071 46.3722 44.8382 47.1156H43.0402L45.4633 44.6928ZM59.8882 61.5955L59.0162 61.8033V64.9454H55.707V61.8033L54.8351 61.5955C53.722 61.3302 52.6624 60.8908 51.6853 60.29L50.9218 59.8201L48.6993 62.0428L46.3594 59.7028L48.582 57.4804L48.1122 56.7168C47.5112 55.7399 47.0719 54.6801 46.8066 53.567L46.5988 52.6951H43.4568V49.3859H46.5989L46.8068 48.5139C47.0721 47.4009 47.5115 46.3412 48.1123 45.3641L48.582 44.6006L46.3594 42.378L48.6993 40.038L50.9218 42.2607L51.6853 41.7908C52.6622 41.1899 53.722 40.7506 54.8351 40.4853L55.707 40.2775V37.1354H59.0162V40.2775L59.8882 40.4853C61.0012 40.7506 62.0611 41.19 63.038 41.7908L63.8015 42.2607L66.024 40.038L68.3639 42.378L66.1413 44.6006L66.611 45.3641C67.2119 46.3411 67.6512 47.4009 67.9165 48.5139L68.1244 49.3859H71.2665V52.6951H68.1244L67.9165 53.567C67.6512 54.6801 67.2118 55.7399 66.611 56.7168L66.1411 57.4804L68.3638 59.7028L66.0238 62.0428L63.8014 59.8201L63.0378 60.29C62.0609 60.8908 61.0012 61.3301 59.8882 61.5955Z" fill="#2B9DD4"/>
<path d="M60.8054 51.0405C60.8054 49.1418 59.2606 47.597 57.362 47.597C55.4631 47.597 53.9185 49.1418 53.9185 51.0405C53.9185 52.9393 55.4633 54.484 57.362 54.484C59.2606 54.4841 60.8054 52.9395 60.8054 51.0405ZM57.362 52.2138C56.715 52.2138 56.1886 51.6876 56.1886 51.0405C56.1886 50.3936 56.715 49.8671 57.362 49.8671C58.0088 49.8671 58.5353 50.3935 58.5353 51.0405C58.5351 51.6876 58.0088 52.2138 57.362 52.2138Z" fill="#2B9DD4"/>
<path d="M67.2692 51.0405H64.999C64.999 55.2517 61.5729 58.6776 57.3618 58.6776V60.9479C62.8249 60.9481 67.2692 56.5036 67.2692 51.0405Z" fill="#2B9DD4"/>
<path d="M57.3618 43.4034V41.1331C51.8987 41.1331 47.4543 45.5775 47.4543 51.0405H49.7246C49.7245 46.8294 53.1505 43.4034 57.3618 43.4034Z" fill="#2B9DD4"/>
<path d="M64.1785 51.0405C64.1785 47.2818 61.1206 44.2239 57.3619 44.2239C53.6032 44.2239 50.5452 47.2818 50.5452 51.0405C50.5452 54.7992 53.6031 57.8572 57.3619 57.8572C61.1206 57.8572 64.1785 54.7992 64.1785 51.0405ZM52.8155 51.0405C52.8155 48.5336 54.8549 46.4942 57.3619 46.4942C59.8688 46.4942 61.9082 48.5336 61.9082 51.0405C61.9082 53.5473 59.8688 55.5869 57.3619 55.5869C54.8551 55.5869 52.8155 53.5473 52.8155 51.0405Z" fill="#2B9DD4"/>
<path d="M23.3512 8.75155L23.0811 6.4975C20.4529 6.81257 17.8984 7.52166 15.4885 8.60492L16.4193 10.6755C18.6194 9.68653 20.9516 9.03925 23.3512 8.75155Z" fill="#2B9DD4"/>
<path d="M34.7763 7.73234C32.2849 6.87467 29.677 6.39988 27.025 6.32123L26.9578 8.59047C29.3807 8.66221 31.7627 9.09563 34.0374 9.87872L34.7763 7.73234Z" fill="#2B9DD4"/>
<path d="M5.75161 20.0983L3.81247 18.9175C2.43535 21.1789 1.41359 23.6252 0.775635 26.1883L2.97871 26.7366C3.56102 24.3968 4.49404 22.1634 5.75161 20.0983Z" fill="#2B9DD4"/>
<path d="M13.2486 12.4L12.0166 10.4929C9.79789 11.9264 7.81183 13.6812 6.11377 15.7088L7.85424 17.1665C9.40627 15.3135 11.2213 13.7098 13.2486 12.4Z" fill="#2B9DD4"/>
<path d="M61.7956 28.8411L56.0945 23.8657L54.6019 25.576L60.303 30.5514L61.7956 28.8411Z" fill="#2B9DD4"/>
<path d="M68.8503 38.0168C70.3436 39.3353 71.5901 40.8839 72.5547 42.6198L74.5391 41.517C73.6071 39.8397 72.4426 38.3173 71.0703 36.9802L71.0872 36.954L64.6481 31.3344L63.1553 33.0449L68.688 37.8733L68.8503 38.0168Z" fill="#2B9DD4"/>
<path d="M40.6487 13.3984C41.5283 14.0617 42.3703 14.7926 43.1512 15.5708L44.7539 13.9629C43.8995 13.1113 42.9782 12.3114 42.0139 11.5847C40.877 10.7275 39.6627 9.9581 38.4045 9.29834L37.3499 11.3088C38.4844 11.904 39.5804 12.5967 40.6084 13.3682L40.6487 13.3984Z" fill="#2B9DD4"/>
<path d="M2.2703 32.5447C2.2703 31.7939 2.30549 31.0364 2.37452 30.2933L0.113996 30.0826C0.0385 30.8955 0 31.724 0 32.5447C0 34.3637 0.187387 36.1808 0.556896 37.946L2.77907 37.4808C2.44144 35.8683 2.2703 34.2077 2.2703 32.5447Z" fill="#2B9DD4"/>
<path d="M53.2424 21.3777L47.5413 16.4023L46.0486 18.1126L51.7498 23.088L53.2424 21.3777Z" fill="#2B9DD4"/>
<path d="M1.65771 41.7417C2.58292 44.213 3.87613 46.5275 5.5011 48.6204L7.29435 47.2281C5.80985 45.3162 4.62883 43.2024 3.78394 40.9458L1.65771 41.7417Z" fill="#2B9DD4"/>
<path d="M70.4148 62.4982L72.1205 63.9963C73.9082 61.9613 75.2335 59.6282 76.0593 57.0621L73.8981 56.3666C73.1681 58.6351 71.9962 60.698 70.4148 62.4982Z" fill="#2B9DD4"/>
<path d="M61.4429 67.9265L61.9742 70.1336C64.5969 69.5023 67.0224 68.3546 69.1838 66.7227L67.8158 64.9108C65.9048 66.354 63.7605 67.3685 61.4429 67.9265Z" fill="#2B9DD4"/>
<path d="M57.3618 68.4085C55.1583 68.4085 53.0108 68.0014 50.9794 67.198L50.1445 69.3092C52.4431 70.218 54.8715 70.6788 57.3619 70.6788C57.5746 70.6788 57.7904 70.6753 58.003 70.6686L57.9304 68.3995C57.7415 68.4055 57.552 68.4085 57.3618 68.4085Z" fill="#2B9DD4"/>
<path d="M8.15039 51.55C10.0685 53.3758 12.2403 54.8953 14.605 56.0667L15.6128 54.0324C13.4524 52.9623 11.4683 51.5738 9.71551 49.9056L8.15039 51.55Z" fill="#2B9DD4"/>
<path d="M76.1173 45.2037L73.9495 45.8777C74.4671 47.5424 74.7297 49.2796 74.7297 51.0405C74.7297 51.6613 74.6966 52.2869 74.6315 52.9001L76.889 53.1401C76.9627 52.4475 77 51.741 77 51.0403C77 49.0505 76.703 47.0869 76.1173 45.2037Z" fill="#2B9DD4"/>
<path d="M18.2132 57.5464L25.3147 60.1618L26.0993 58.0314L18.9978 55.416L18.2132 57.5464Z" fill="#2B9DD4"/>
<path d="M28.8626 61.4699L35.9641 64.0853L36.7487 61.9548L29.6472 59.3394L28.8626 61.4699Z" fill="#2B9DD4"/>
<path d="M39.5164 65.3922L46.6179 68.0076L47.4025 65.8771L40.301 63.2617L39.5164 65.3922Z" fill="#2B9DD4"/>
</g>
<defs>
<clipPath id="clip0_98_2028">
<rect width="77" height="77" fill="white"/>
</clipPath>
</defs>
</svg>
