<svg width="58" height="58" viewBox="0 0 58 58" fill="none" xmlns="http://www.w3.org/2000/svg">
<g clip-path="url(#clip0_55_1642)">
<path d="M50.3865 8.4361L42.8175 0.851633C42.2721 0.308246 41.5342 0.002175 40.7643 0H9.6666C8.06496 0 6.7666 1.29835 6.7666 2.9V55.1C6.7666 56.7016 8.06496 58 9.6666 58H48.3333C49.9349 58 51.2333 56.7016 51.2333 55.1V10.4845C51.235 9.71621 50.9302 8.97888 50.3865 8.4361ZM49.2999 55.1C49.2999 55.6338 48.8671 56.0667 48.3333 56.0667H9.6666C9.13276 56.0667 8.69993 55.6338 8.69993 55.1V2.9C8.69993 2.36616 9.13276 1.93333 9.6666 1.93333H40.5999V8.7C40.5999 10.3016 41.8983 11.6 43.4999 11.6H47.3666V9.66667H43.4999C42.9661 9.66667 42.5333 9.23384 42.5333 8.7V3.30407L49.0177 9.80103C49.1986 9.9824 49.3002 10.2283 49.2999 10.4845V55.1Z" fill="#2B9DD4"/>
<path d="M14.5 5.79999H12.5667V7.73332H14.5V5.79999Z" fill="#2B9DD4"/>
<path d="M35.7667 5.79999H16.4333V7.73332H35.7667V5.79999Z" fill="#2B9DD4"/>
<path d="M35.7667 9.66666H12.5667V11.6H35.7667V9.66666Z" fill="#2B9DD4"/>
<path d="M44.4667 15.4667H13.5333C12.9995 15.4667 12.5667 15.8995 12.5667 16.4333V24.1667C12.5667 24.7005 12.9995 25.1333 13.5333 25.1333H44.4667C45.0005 25.1333 45.4333 24.7005 45.4333 24.1667V16.4333C45.4333 15.8995 45.0005 15.4667 44.4667 15.4667ZM43.5 23.2H14.5V17.4H43.5V23.2Z" fill="#2B9DD4"/>
<path d="M44.4667 27.0667H13.5333C12.9995 27.0667 12.5667 27.4995 12.5667 28.0333V51.2333C12.5667 51.7672 12.9995 52.2 13.5333 52.2H44.4667C45.0005 52.2 45.4333 51.7672 45.4333 51.2333V28.0333C45.4333 27.4995 45.0005 27.0667 44.4667 27.0667ZM43.5 50.2667H14.5V29H43.5V50.2667Z" fill="#2B9DD4"/>
<path d="M18.3667 32.8667H16.4333V34.8H18.3667V32.8667Z" fill="#2B9DD4"/>
<path d="M41.5667 32.8667H20.3V34.8H41.5667V32.8667Z" fill="#2B9DD4"/>
<path d="M41.5667 38.6667H16.4333V40.6H41.5667V38.6667Z" fill="#2B9DD4"/>
<path d="M41.5667 44.4667H16.4333V46.4H41.5667V44.4667Z" fill="#2B9DD4"/>
</g>
<defs>
<clipPath id="clip0_55_1642">
<rect width="58" height="58" fill="white"/>
</clipPath>
</defs>
</svg>
