<svg width="59" height="59" viewBox="0 0 59 59" fill="none" xmlns="http://www.w3.org/2000/svg">
<g clip-path="url(#clip0_55_1656)">
<path d="M17.3565 0L6.32837 11.0282V59H52.6716V0H17.3565ZM16.8433 2.9916V10.5149H9.31997L16.8433 2.9916ZM50.9192 57.2475H8.08085V12.2673H18.5958V1.75248H50.9192V57.2475Z" fill="#2B9DD4"/>
<path d="M46.7521 35.2831V25.4693H36.9383V29.4416H34.2051L30.6294 25.8658V23.1327H41.1442V13.903H18.362V23.1327H28.8769V25.8658L25.3011 29.4416H22.568V25.4693H12.7542V35.2831H22.568V31.194H25.3011L28.8768 34.7698V37.5029H18.3619V46.7326H41.1441V37.503H30.6292V34.7699L34.205 31.1942H36.9382V35.2833H46.7521V35.2831ZM38.6908 27.2218H44.9997V33.5307H38.6908V27.2218ZM20.8155 33.5307H14.5065V27.2218H20.8155V33.5307ZM20.1145 21.3802V15.6555H39.3917V21.3802H20.1145ZM39.3917 39.2554V44.9801H20.1145V39.2554H39.3917ZM29.7532 33.1678L26.9032 30.3178L29.7532 27.4678L32.603 30.3178L29.7532 33.1678Z" fill="#2B9DD4"/>
<path d="M38.9438 3.50497V5.25746H47.4142V10.2228H49.1666V3.50497H38.9438Z" fill="#2B9DD4"/>
<path d="M49.1665 11.9753H47.4141V13.7278H49.1665V11.9753Z" fill="#2B9DD4"/>
<path d="M11.5857 45.2722H9.83325V47.0247H11.5857V45.2722Z" fill="#2B9DD4"/>
<path d="M11.5857 53.7426V48.7772H9.83325V55.495H20.056V53.7426H11.5857Z" fill="#2B9DD4"/>
<path d="M30.6294 51.9316H28.877V53.6841H30.6294V51.9316Z" fill="#2B9DD4"/>
<path d="M30.6294 48.4268H28.877V50.1793H30.6294V48.4268Z" fill="#2B9DD4"/>
<path d="M30.6294 6.71783H28.877V8.47032H30.6294V6.71783Z" fill="#2B9DD4"/>
<path d="M30.6294 10.2228H28.877V11.9753H30.6294V10.2228Z" fill="#2B9DD4"/>
<path d="M30.6294 3.21286H28.877V4.96534H30.6294V3.21286Z" fill="#2B9DD4"/>
<path d="M24.4956 17.6416H22.7432V19.3941H24.4956V17.6416Z" fill="#2B9DD4"/>
<path d="M36.7629 17.6416H32.6738V19.3941H36.7629V17.6416Z" fill="#2B9DD4"/>
<path d="M30.9213 17.6416H26.248V19.3941H30.9213V17.6416Z" fill="#2B9DD4"/>
<path d="M29.7531 41.2416H22.7432V42.9941H29.7531V41.2416Z" fill="#2B9DD4"/>
<path d="M33.2579 41.2416H31.5054V42.9941H33.2579V41.2416Z" fill="#2B9DD4"/>
<path d="M36.763 41.2416H35.0105V42.9941H36.763V41.2416Z" fill="#2B9DD4"/>
<path d="M49.2056 50.296H47.4531V54.6188H49.2056V50.296Z" fill="#2B9DD4"/>
<path d="M49.2056 46.6743H47.4531V48.5437H49.2056V46.6743Z" fill="#2B9DD4"/>
</g>
<defs>
<clipPath id="clip0_55_1656">
<rect width="59" height="59" fill="white"/>
</clipPath>
</defs>
</svg>
