<svg width="65" height="65" viewBox="0 0 65 65" fill="none" xmlns="http://www.w3.org/2000/svg">
<g clip-path="url(#clip0_55_1633)">
<path d="M24.5921 21.9971C24.5921 22.6334 24.0764 23.1496 23.4396 23.1496C22.8034 23.1496 22.2871 22.6334 22.2871 21.9971C22.2871 21.3604 22.8034 20.8446 23.4396 20.8446C24.0764 20.8446 24.5921 21.3604 24.5921 21.9971Z" fill="#2B9DD4"/>
<path d="M29.1507 21.9971C29.1507 22.6334 28.6349 23.1496 27.9982 23.1496C27.3619 23.1496 26.8457 22.6334 26.8457 21.9971C26.8457 21.3604 27.3619 20.8446 27.9982 20.8446C28.6349 20.8446 29.1507 21.3604 29.1507 21.9971Z" fill="#2B9DD4"/>
<path d="M24.5921 30.8119C24.5921 31.4487 24.0764 31.9644 23.4396 31.9644C22.8034 31.9644 22.2871 31.4487 22.2871 30.8119C22.2871 30.1757 22.8034 29.6594 23.4396 29.6594C24.0764 29.6594 24.5921 30.1757 24.5921 30.8119Z" fill="#2B9DD4"/>
<path d="M29.1507 30.8119C29.1507 31.4487 28.6349 31.9644 27.9982 31.9644C27.3619 31.9644 26.8457 31.4487 26.8457 30.8119C26.8457 30.1757 27.3619 29.6594 27.9982 29.6594C28.6349 29.6594 29.1507 30.1757 29.1507 30.8119Z" fill="#2B9DD4"/>
<path d="M24.5921 39.3713C24.5921 40.0076 24.0764 40.5238 23.4396 40.5238C22.8034 40.5238 22.2871 40.0076 22.2871 39.3713C22.2871 38.7346 22.8034 38.2188 23.4396 38.2188C24.0764 38.2188 24.5921 38.7346 24.5921 39.3713Z" fill="#2B9DD4"/>
<path d="M29.1507 39.3713C29.1507 40.0076 28.6349 40.5238 27.9982 40.5238C27.3619 40.5238 26.8457 40.0076 26.8457 39.3713C26.8457 38.7346 27.3619 38.2188 27.9982 38.2188C28.6349 38.2188 29.1507 38.7346 29.1507 39.3713Z" fill="#2B9DD4"/>
<path d="M14.9511 37.6743C15.4431 37.8613 15.993 37.6138 16.1795 37.1224C16.3665 36.6309 16.1195 36.081 15.6275 35.8945C13.0682 34.9215 10.8797 33.2176 9.29874 30.9671C7.68306 28.6661 6.8291 25.9579 6.8291 23.1352C6.8291 19.5433 8.21319 16.1523 10.7265 13.587C13.2363 11.0256 16.5901 9.57157 20.1706 9.49371C20.5227 9.48578 20.8416 9.28493 21.0002 8.97053C23.1986 4.61197 27.5934 1.9043 32.4707 1.9043C39.5265 1.9043 45.2855 7.64446 45.3093 14.6998C45.3098 14.971 45.4263 15.2289 45.6292 15.4084C45.832 15.5885 46.1022 15.6738 46.371 15.6425C46.7841 15.5944 47.2007 15.5701 47.6088 15.5701C53.4566 15.5701 58.2144 20.3279 58.2144 26.1757C58.2144 31.2637 54.5927 35.6451 49.6029 36.5937C49.0861 36.6924 48.7469 37.1908 48.8451 37.7071C48.9319 38.1638 49.3311 38.4817 49.7794 38.4817C49.8384 38.4817 49.8984 38.4762 49.9585 38.4648C55.8454 37.3455 60.1187 32.1772 60.1187 26.1757C60.1187 19.278 54.5064 13.6658 47.6088 13.6658C47.465 13.6658 47.3202 13.6683 47.1749 13.6737C46.6244 6.04515 40.2302 0 32.4707 0C27.0598 0 22.1656 2.90207 19.5641 7.61223C15.6965 7.83489 12.0937 9.47041 9.36618 12.254C6.5023 15.1778 4.9248 19.042 4.9248 23.1352C4.9248 26.3517 5.89828 29.4382 7.74059 32.0611C9.54074 34.625 12.0347 36.566 14.9511 37.6743Z" fill="#2B9DD4"/>
<path d="M64.9162 56.9186C64.9162 52.4624 61.2906 48.8373 56.8348 48.8373C53.1393 48.8373 50.0151 51.3307 49.056 54.7237H40.3002C39.4249 51.6263 36.7455 49.2786 33.474 48.8928V44.6032H44.2377C45.6317 44.6032 46.7654 43.469 46.7654 42.0755V36.6666C46.7654 36.0715 46.5586 35.5236 46.2129 35.0916C46.5586 34.6592 46.7654 34.1112 46.7654 33.5161V28.1077C46.7654 27.5126 46.5586 26.9646 46.2129 26.5322C46.5586 26.0998 46.7654 25.5518 46.7654 24.9567V19.5483C46.7654 18.1548 45.6317 17.0206 44.2377 17.0206H20.8055C19.4119 17.0206 18.2778 18.1548 18.2778 19.5483V24.9567C18.2778 25.5523 18.4846 26.0998 18.8302 26.5322C18.4846 26.9646 18.2778 27.5121 18.2778 28.1077V33.5161C18.2778 34.1112 18.4846 34.6592 18.8302 35.0916C18.4846 35.524 18.2778 36.0715 18.2778 36.6666V42.0755C18.2778 43.469 19.4119 44.6032 20.8055 44.6032H31.5697V48.8928C28.2977 49.2786 25.6183 51.6263 24.743 54.7237H15.9902C15.6262 53.4269 14.9388 52.2357 13.9678 51.2489C12.4533 49.7106 10.4305 48.8541 8.27181 48.8373C8.25048 48.8373 8.22916 48.8368 8.20734 48.8368C3.78084 48.8368 0.16218 52.4207 0.127466 56.8551C0.110109 59.0138 0.934808 61.0496 2.44932 62.5879C3.96383 64.1262 5.98665 64.9826 8.14485 64.9995C8.16667 65 8.188 65 8.20982 65C10.0382 65 11.7288 64.3885 13.0861 63.358C13.1362 63.3263 13.1828 63.2896 13.2255 63.2499C15.0747 61.7815 16.2699 59.5212 16.2897 56.9821C16.2907 56.8636 16.2892 56.7456 16.2847 56.628H24.4454C24.442 56.7242 24.44 56.8214 24.44 56.9186C24.44 59.4587 25.6183 61.729 27.4566 63.2112C27.4983 63.2509 27.5439 63.2871 27.5925 63.3188C28.9577 64.3727 30.6676 65 32.5218 65C34.3756 65 36.0854 64.3727 37.4507 63.3188C37.4993 63.2871 37.5449 63.2509 37.5866 63.2112C39.4249 61.729 40.6032 59.4587 40.6032 56.9186C40.6032 56.8214 40.6012 56.7242 40.5977 56.628H48.7584C48.755 56.7242 48.7535 56.8214 48.7535 56.9186C48.7535 59.4587 49.9313 61.729 51.7696 63.2112C51.8113 63.2509 51.8569 63.2871 51.9055 63.3188C53.2707 64.3727 54.9806 65 56.8348 65C58.6891 65 60.3995 64.3722 61.7642 63.3184C61.8128 63.2871 61.8574 63.2514 61.8991 63.2117C63.7379 61.7295 64.9162 59.4587 64.9162 56.9186ZM20.8055 34.1395C20.4618 34.1395 20.1821 33.8598 20.1821 33.5161V28.1077C20.1821 27.764 20.4618 27.4843 20.8055 27.4843H44.2377C44.5814 27.4843 44.8606 27.764 44.8606 28.1077V33.5161C44.8606 33.8598 44.5814 34.1395 44.2377 34.1395H20.8055ZM20.1821 19.5488C20.1821 19.2051 20.4618 18.9254 20.8055 18.9254H44.2377C44.5814 18.9254 44.8606 19.2051 44.8606 19.5488V24.9572C44.8606 25.3008 44.5814 25.58 44.2377 25.58H20.8055C20.4618 25.58 20.1821 25.3008 20.1821 24.9572V19.5488ZM20.1821 42.0755V36.6671C20.1821 36.3235 20.4618 36.0438 20.8055 36.0438H44.2377C44.5814 36.0438 44.8606 36.3235 44.8606 36.6671V42.0755C44.8606 42.4192 44.5814 42.6989 44.2377 42.6989H20.8055C20.4618 42.6989 20.1821 42.4192 20.1821 42.0755ZM8.20932 63.0957C8.19296 63.0957 8.17659 63.0957 8.15973 63.0952C6.92342 63.0858 5.74514 62.7153 4.74489 62.0354C4.99731 60.3731 6.4419 59.0962 8.1637 59.0962H8.18601H8.19147H8.19742C9.92716 59.113 11.3613 60.4143 11.5909 62.085C10.618 62.7238 9.45554 63.0957 8.20932 63.0957ZM8.20635 57.1919C7.37024 57.1854 6.69531 56.5001 6.70225 55.664C6.7087 54.8318 7.3876 54.1594 8.21825 54.1594H8.23015C9.06625 54.1658 9.74119 54.8517 9.73474 55.6878C9.7278 56.5239 9.04493 57.2003 8.20635 57.1919ZM13.1595 60.6082C12.7097 59.4622 11.8751 58.505 10.8163 57.898C11.3231 57.3064 11.6321 56.5407 11.6385 55.7027C11.6534 53.8167 10.131 52.2705 8.24503 52.2556C8.2356 52.2556 8.22717 52.2556 8.21775 52.2556C6.3442 52.2556 4.81233 53.7721 4.79795 55.6491C4.79151 56.4644 5.06872 57.238 5.58397 57.8579C4.51528 58.449 3.66579 59.3942 3.19864 60.5343C2.43047 59.475 2.02135 58.203 2.03176 56.87C2.05805 53.4805 4.82374 50.7416 8.20783 50.7416H8.25693C9.90682 50.7545 11.4531 51.4091 12.6105 52.5854C13.768 53.7612 14.3988 55.3173 14.3854 56.9672C14.3745 58.3315 13.9197 59.5911 13.1595 60.6082ZM29.0991 62.0582C29.3416 60.3875 30.7886 59.0962 32.5218 59.0962C34.2546 59.0962 35.7016 60.3875 35.9446 62.0582C34.9637 62.7133 33.7864 63.0957 32.5218 63.0957C31.2568 63.0957 30.0795 62.7133 29.0991 62.0582ZM31.0053 55.6759C31.0053 54.8398 31.6857 54.1594 32.5218 54.1594C33.3579 54.1594 34.0378 54.8398 34.0378 55.6759C34.0378 56.512 33.3579 57.1919 32.5218 57.1919C31.6857 57.1919 31.0053 56.512 31.0053 55.6759ZM37.5013 60.5695C37.0426 59.4269 36.2005 58.4763 35.1373 57.8777C35.6391 57.2821 35.9421 56.5135 35.9421 55.6759C35.9421 53.7894 34.4078 52.2551 32.5213 52.2551C30.6354 52.2551 29.101 53.7894 29.101 55.6759C29.101 56.5135 29.4036 57.2821 29.9059 57.8777C28.8422 58.4763 28.0006 59.4269 27.5414 60.5695C26.7891 59.546 26.3443 58.2834 26.3443 56.9186C26.3443 53.5122 29.1154 50.7416 32.5213 50.7416C35.9273 50.7416 38.6984 53.5127 38.6984 56.9186C38.6989 58.2834 38.2541 59.546 37.5013 60.5695ZM50.6578 56.9186C50.6578 53.5122 53.4289 50.7416 56.8348 50.7416C60.2408 50.7416 63.0119 53.5127 63.0119 56.9186C63.0119 58.2834 62.5671 59.546 61.8148 60.5695C61.3556 59.4269 60.5135 58.4763 59.4503 57.8777C59.9521 57.2821 60.2551 56.5135 60.2551 55.6759C60.2551 53.7894 58.7208 52.2551 56.8348 52.2551C54.9484 52.2551 53.4141 53.7894 53.4141 55.6759C53.4141 56.5135 53.7171 57.2821 54.2189 57.8777C53.1557 58.4763 52.3136 59.4269 51.8549 60.5695C51.1026 59.546 50.6578 58.2834 50.6578 56.9186ZM55.3184 55.6759C55.3184 54.8398 55.9987 54.1594 56.8348 54.1594C57.671 54.1594 58.3508 54.8398 58.3508 55.6759C58.3508 56.512 57.671 57.1919 56.8348 57.1919C55.9987 57.1919 55.3184 56.512 55.3184 55.6759ZM53.4121 62.0582C53.6551 60.3875 55.1021 59.0962 56.8348 59.0962C58.5676 59.0962 60.0146 60.3875 60.2576 62.0582C59.2772 62.7133 58.0999 63.0957 56.8348 63.0957C55.5698 63.0957 54.3925 62.7133 53.4121 62.0582Z" fill="#2B9DD4"/>
</g>
<defs>
<clipPath id="clip0_55_1633">
<rect width="65" height="65" fill="white"/>
</clipPath>
</defs>
</svg>
