<svg width="44" height="68" viewBox="0 0 44 68" fill="none" xmlns="http://www.w3.org/2000/svg">
<path d="M29.5925 35.2441C29.5925 36.9177 30.9541 38.2793 32.6277 38.2793C34.3013 38.2793 35.6629 36.9177 35.6629 35.2441C35.6629 33.5705 34.3013 32.209 32.6277 32.209C30.9541 32.209 29.5925 33.5706 29.5925 35.2441ZM33.6706 35.2441C33.6706 35.8192 33.2028 36.2871 32.6276 36.2871C32.0524 36.2871 31.5846 35.8193 31.5846 35.2441C31.5846 34.6691 32.0524 34.2012 32.6276 34.2012C33.2028 34.2012 33.6706 34.6691 33.6706 35.2441Z" fill="#2B9DD4"/>
<path d="M7.81372 35.2441C7.81372 36.9177 9.17532 38.2793 10.8489 38.2793C12.5225 38.2793 13.8839 36.9177 13.8839 35.2441C13.8839 33.5705 12.5225 32.209 10.8489 32.209C9.17532 32.209 7.81372 33.5706 7.81372 35.2441ZM11.8916 35.2441C11.8916 35.8192 11.4238 36.2871 10.8488 36.2871C10.2737 36.2871 9.80578 35.8193 9.80578 35.2441C9.80578 34.6691 10.2735 34.2012 10.8488 34.2012C11.4237 34.2014 11.8916 34.6691 11.8916 35.2441Z" fill="#2B9DD4"/>
<path d="M14.188 26.6511C14.188 30.8143 17.575 34.2013 21.7381 34.2013C25.9014 34.2013 29.2884 30.8143 29.2884 26.6511C29.2884 22.4878 25.9014 19.1008 21.7381 19.1008C17.575 19.1008 14.188 22.4878 14.188 26.6511ZM27.2961 26.6511C27.2961 29.7157 24.8028 32.2091 21.738 32.2091C18.6732 32.2091 16.18 29.7158 16.18 26.6511C16.18 23.5863 18.6732 21.093 21.738 21.093C24.8028 21.093 27.2961 23.5864 27.2961 26.6511Z" fill="#2B9DD4"/>
<path d="M20.742 22.9531V24.082C19.7127 24.4826 18.98 25.4817 18.98 26.651C18.98 28.1719 20.2171 29.4092 21.7381 29.4092C23.2591 29.4092 24.4964 28.172 24.4964 26.651C24.4964 25.4816 23.7636 24.4826 22.7342 24.082V22.9533C22.7342 22.403 22.2884 21.9572 21.7381 21.9572C21.1879 21.9572 20.742 22.403 20.742 22.9531ZM22.504 26.651C22.504 27.0734 22.1605 27.417 21.738 27.417C21.3156 27.417 20.972 27.0734 20.972 26.651C20.972 26.2287 21.3156 25.8851 21.738 25.8851C22.1605 25.8851 22.504 26.2287 22.504 26.651Z" fill="#2B9DD4"/>
<path d="M36.5082 58.0203C38.9173 58.0203 40.8772 56.0604 40.8772 53.6514V48.413C42.4173 47.6339 43.4763 46.0368 43.4763 44.1962V43.6746C43.4763 43.0914 43.2063 42.5704 42.7852 42.2288V28.9752C42.7852 28.4249 42.3393 27.9791 41.7891 27.9791C41.2388 27.9791 40.793 28.4249 40.793 28.9752V41.8127H2.68335V7.86718H19.4139C19.9642 7.86718 20.41 7.42133 20.41 6.87108C20.41 6.32084 19.9642 5.87498 19.4139 5.87498H2.68335V4.7235C2.68335 3.2174 3.90869 1.9922 5.41479 1.9922H38.0616C39.5678 1.9922 40.793 3.21753 40.793 4.7235V5.87498H24.0624C23.5122 5.87498 23.0663 6.32084 23.0663 6.87108C23.0663 7.42133 23.5122 7.86718 24.0624 7.86718H40.793V24.3268C40.793 24.8771 41.2388 25.3229 41.7891 25.3229C42.3393 25.3229 42.7852 24.8771 42.7852 24.3268C42.7852 23.5137 42.7852 5.56792 42.7852 4.7235C42.7852 2.11903 40.6661 0 38.0616 0H5.41479C2.81019 0 0.691159 2.11903 0.691159 4.7235V42.2288C0.270009 42.5704 0 43.0914 0 43.6746V44.1962C0 46.037 1.05892 47.6339 2.59902 48.413V53.6514C2.59902 56.0604 4.55894 58.0203 6.96804 58.0203H10.9883V59.4937C10.5003 59.858 10.1825 60.438 10.1825 61.0924V66.0037C10.1825 67.1044 11.0781 68 12.1788 68H15.4037C16.5044 68 17.4 67.1044 17.4 66.0037V61.0924C17.4 60.4382 17.0821 59.858 16.5943 59.4937V58.0203H26.8823V59.4937C26.3943 59.858 26.0765 60.438 26.0765 61.0924V66.0037C26.0765 67.1044 26.9721 68 28.0728 68H31.2978C32.3985 68 33.2941 67.1044 33.2941 66.0037V61.0924C33.2941 60.438 32.9761 59.858 32.4883 59.4937V58.0203H36.5082ZM38.885 53.6515C38.885 54.962 37.8188 56.0282 36.5082 56.0282H32.4882V48.92H38.7527C38.7968 48.92 38.8409 48.9193 38.885 48.9181V53.6515ZM10.9882 56.0281H6.9679C5.65744 56.0281 4.59108 54.962 4.59108 53.6514V48.9178C4.63517 48.919 4.67927 48.9197 4.72336 48.9197H10.988L10.9882 56.0281ZM15.4035 66.0078L12.1744 66.0037L12.1786 61.0884C12.1787 61.0884 12.179 61.0884 12.1791 61.0883L15.4037 61.0885L15.4075 61.0924L15.4035 66.0078ZM12.9803 59.0961C12.9803 58.02 12.9803 49.9863 12.9803 48.9198H14.602V59.0961H12.9803ZM26.8822 56.0281H16.5942V48.9198H26.8822V56.0281ZM31.2977 66.0078L28.0686 66.0037L28.0727 61.0884C28.0728 61.0884 28.0731 61.0884 28.0732 61.0883L31.2979 61.0885L31.3018 61.0924L31.2977 66.0078ZM28.8743 59.0961C28.8743 58.02 28.8743 49.9863 28.8743 48.9198H30.496V59.0961H28.8743ZM4.7235 46.9276C3.22563 46.9276 1.9922 45.7077 1.9922 44.1963V43.8052H41.4843V44.1963C41.4843 45.7376 40.2191 46.9276 38.7528 46.9276C23.9686 46.9276 19.5936 46.9276 4.7235 46.9276Z" fill="#2B9DD4"/>
</svg>
