<svg width="25" height="25" viewBox="0 0 25 25" fill="none" xmlns="http://www.w3.org/2000/svg">
<path d="M4.67094 1.15296C4.28039 1.16478 3.93729 1.37088 3.65013 1.65804L2.06703 3.23809C2.02932 3.2741 1.99918 3.31728 1.97839 3.3651C1.9576 3.41292 1.94657 3.46443 1.94595 3.51658C1.94533 3.56872 1.95514 3.62043 1.97479 3.66873C1.99445 3.71703 2.02355 3.76091 2.0604 3.79781C2.09725 3.83471 2.1411 3.86388 2.18937 3.8836C2.23764 3.90332 2.28937 3.91321 2.34152 3.91266C2.39366 3.91211 2.44517 3.90117 2.49302 3.88044C2.54087 3.85972 2.58409 3.82962 2.62016 3.79195L3.1649 3.24723L6.36009 6.5225C6.72297 6.91731 7.30527 6.35008 6.92009 5.97701L3.71727 2.69485L4.20097 2.21114C4.40143 2.01068 4.56295 1.93896 4.69383 1.93495C4.82479 1.93052 4.98275 1.98426 5.20958 2.21114L8.56651 5.56502C8.72431 5.72282 8.72431 5.95808 8.56651 6.11587L6.75529 7.92634C6.29686 8.38477 6.14354 8.91628 6.19606 9.36297C6.24862 9.80967 6.46811 10.1583 6.65153 10.3952C7.36055 11.311 8.46088 12.9195 10.2702 14.7287C12.0794 16.538 13.6886 17.6391 14.6044 18.3481C14.8413 18.5315 15.19 18.7511 15.6367 18.8036C16.0834 18.8561 16.6141 18.7027 17.0725 18.2443L17.6142 17.7041L20.8155 20.9749C21.177 21.4069 21.7968 20.7998 21.3725 20.4294L18.1651 17.1533L18.8837 16.4361C19.0416 16.2783 19.2768 16.2783 19.4346 16.4361L22.7877 19.7893C23.0145 20.0161 23.0687 20.1749 23.0647 20.3058C23.0602 20.4367 22.9882 20.5982 22.7877 20.7986L21.2077 22.3787C20.5484 23.0379 19.6822 23.0447 19.1401 23.0447C17.0932 23.0447 13.4521 22.2762 8.08738 16.9115C2.72263 11.5467 1.95411 7.90645 1.95411 5.85955C1.95411 5.6642 1.95294 5.42401 1.98614 5.16678C1.99699 5.11404 1.99682 5.05967 1.98564 5.00701C1.97446 4.95435 1.95252 4.90454 1.9212 4.86076C1.88987 4.81698 1.84983 4.78016 1.80359 4.75258C1.75735 4.72501 1.70591 4.70725 1.6525 4.7005C1.59909 4.69374 1.54486 4.69814 1.49321 4.71334C1.44157 4.72854 1.39362 4.7542 1.35238 4.78881C1.31114 4.82341 1.27749 4.8662 1.25356 4.91442C1.22962 4.96264 1.21591 5.01528 1.21329 5.06905C1.17284 5.38454 1.17285 5.66256 1.17285 5.85869C1.17285 8.10815 2.07289 11.9978 7.53729 17.4622C13.0017 22.9266 16.8906 23.8267 19.1401 23.8267C19.6837 23.8267 20.8615 23.8326 21.7615 22.9325L23.3416 21.3525C23.6287 21.0653 23.8347 20.7192 23.8467 20.3286C23.8585 19.9381 23.6664 19.5609 23.3416 19.2361L19.9885 15.8822C19.5342 15.4279 18.7841 15.4279 18.3298 15.8822L16.5224 17.6934C16.1996 18.0162 15.9576 18.0548 15.7259 18.0276C15.4943 18.0004 15.2587 17.8664 15.0835 17.7308C14.1287 16.9915 12.5818 15.9333 10.824 14.1755C9.06622 12.4177 8.00802 10.8709 7.26874 9.91599C7.13321 9.74087 6.9992 9.50451 6.97196 9.27286C6.94465 9.04122 6.98657 8.79992 7.30918 8.47709L9.11734 6.66969C9.57162 6.21543 9.57161 5.46535 9.11734 5.01107L5.76346 1.65795C5.43861 1.33308 5.06147 1.14096 4.67094 1.15296Z" fill="white"/>
</svg>
