<svg width="54" height="54" viewBox="0 0 54 54" fill="none" xmlns="http://www.w3.org/2000/svg">
<path d="M53.1 49.5H47.7V16.2C47.7 15.703 47.297 15.3 46.8 15.3H31.5V3.6C31.5 3.10297 31.097 2.7 30.6 2.7H7.2C6.70297 2.7 6.3 3.10297 6.3 3.6V49.5H0.9C0.402975 49.5 0 49.903 0 50.4C0 50.897 0.402975 51.3 0.9 51.3H53.1C53.597 51.3 54 50.897 54 50.4C54 49.903 53.597 49.5 53.1 49.5ZM29.7 49.5H8.1V4.5H29.7V49.5ZM45.9 49.5H31.5V17.1H45.9V49.5Z" fill="#2B9DD4"/>
<path d="M36 26.1H41.4C41.897 26.1 42.3 25.697 42.3 25.2V19.8C42.3 19.303 41.897 18.9 41.4 18.9H36C35.503 18.9 35.1 19.303 35.1 19.8V25.2C35.1 25.697 35.503 26.1 36 26.1ZM36.9 20.7H40.5V24.3H36.9V20.7Z" fill="#2B9DD4"/>
<path d="M36 35.1H41.4C41.897 35.1 42.3 34.697 42.3 34.2V28.8C42.3 28.303 41.897 27.9 41.4 27.9H36C35.503 27.9 35.1 28.303 35.1 28.8V34.2C35.1 34.697 35.503 35.1 36 35.1ZM36.9 29.7H40.5V33.3H36.9V29.7Z" fill="#2B9DD4"/>
<path d="M36 44.1H41.4C41.897 44.1 42.3 43.697 42.3 43.2V37.8C42.3 37.303 41.897 36.9 41.4 36.9H36C35.503 36.9 35.1 37.303 35.1 37.8V43.2C35.1 43.697 35.503 44.1 36 44.1ZM36.9 38.7H40.5V42.3H36.9V38.7Z" fill="#2B9DD4"/>
<path d="M20.7 26.1H26.1C26.597 26.1 27 25.697 27 25.2V19.8C27 19.303 26.597 18.9 26.1 18.9H20.7C20.203 18.9 19.8 19.303 19.8 19.8V25.2C19.8 25.697 20.203 26.1 20.7 26.1ZM21.6 20.7H25.2V24.3H21.6V20.7Z" fill="#2B9DD4"/>
<path d="M20.7 17.1H26.1C26.597 17.1 27 16.697 27 16.2V10.8C27 10.303 26.597 9.89999 26.1 9.89999H20.7C20.203 9.89999 19.8 10.303 19.8 10.8V16.2C19.8 16.697 20.203 17.1 20.7 17.1ZM21.6 11.7H25.2V15.3H21.6V11.7Z" fill="#2B9DD4"/>
<path d="M20.7 35.1H26.1C26.597 35.1 27 34.697 27 34.2V28.8C27 28.303 26.597 27.9 26.1 27.9H20.7C20.203 27.9 19.8 28.303 19.8 28.8V34.2C19.8 34.697 20.203 35.1 20.7 35.1ZM21.6 29.7H25.2V33.3H21.6V29.7Z" fill="#2B9DD4"/>
<path d="M20.7 44.1H26.1C26.597 44.1 27 43.697 27 43.2V37.8C27 37.303 26.597 36.9 26.1 36.9H20.7C20.203 36.9 19.8 37.303 19.8 37.8V43.2C19.8 43.697 20.203 44.1 20.7 44.1ZM21.6 38.7H25.2V42.3H21.6V38.7Z" fill="#2B9DD4"/>
<path d="M11.7 26.1H17.1C17.597 26.1 18 25.697 18 25.2V19.8C18 19.303 17.597 18.9 17.1 18.9H11.7C11.203 18.9 10.8 19.303 10.8 19.8V25.2C10.8 25.697 11.203 26.1 11.7 26.1ZM12.6 20.7H16.2V24.3H12.6V20.7Z" fill="#2B9DD4"/>
<path d="M11.7 17.1H17.1C17.597 17.1 18 16.697 18 16.2V10.8C18 10.303 17.597 9.89999 17.1 9.89999H11.7C11.203 9.89999 10.8 10.303 10.8 10.8V16.2C10.8 16.697 11.203 17.1 11.7 17.1ZM12.6 11.7H16.2V15.3H12.6V11.7Z" fill="#2B9DD4"/>
<path d="M11.7 35.1H17.1C17.597 35.1 18 34.697 18 34.2V28.8C18 28.303 17.597 27.9 17.1 27.9H11.7C11.203 27.9 10.8 28.303 10.8 28.8V34.2C10.8 34.697 11.203 35.1 11.7 35.1ZM12.6 29.7H16.2V33.3H12.6V29.7Z" fill="#2B9DD4"/>
<path d="M11.7 44.1H17.1C17.597 44.1 18 43.697 18 43.2V37.8C18 37.303 17.597 36.9 17.1 36.9H11.7C11.203 36.9 10.8 37.303 10.8 37.8V43.2C10.8 43.697 11.203 44.1 11.7 44.1ZM12.6 38.7H16.2V42.3H12.6V38.7Z" fill="#2B9DD4"/>
</svg>
