<svg width="53" height="54" viewBox="0 0 53 54" fill="none" xmlns="http://www.w3.org/2000/svg">
<g clip-path="url(#clip0_2_11654)">
<path d="M0.828125 53.1546H52.1719C52.6298 53.1546 53 52.7774 53 52.3108V48.9358C53 48.4692 52.6298 48.0921 52.1719 48.0921H49.6875V41.3421H52.1719C52.6298 41.3421 53 40.9649 53 40.4983V37.1233C53 36.6567 52.6298 36.2796 52.1719 36.2796H49.1269L32.0137 23.857C32.1983 23.2352 32.2977 22.5821 32.3027 21.9147C32.3151 20.2517 31.7412 18.6908 30.692 17.4614L31.304 14.3454H31.4588C31.7197 14.3454 31.9648 14.2206 32.1221 14.0079L34.6057 10.6296C34.7125 10.4836 34.7705 10.3056 34.7705 10.1233V1.68919C34.7705 1.2226 34.4003 0.845444 33.9424 0.845444H19.0336C18.5757 0.845444 18.2055 1.2226 18.2055 1.68919V10.1233C18.2055 10.3056 18.2635 10.4836 18.3703 10.6296L20.8538 14.0079C21.0104 14.2206 21.2555 14.3454 21.5172 14.3454H21.5445V16.1629C21.5362 16.389 21.6124 16.6168 21.7813 16.7889L25.0582 20.1293C25.3713 20.4483 25.5435 20.8727 25.5435 21.3233C25.5435 21.7738 25.3713 22.1965 25.0582 22.5155C24.9498 22.626 24.8272 22.7104 24.6997 22.7838C24.7005 22.6133 24.6649 22.4412 24.5605 22.291C24.2964 21.9122 23.7796 21.8236 23.4053 22.0936L22.7668 22.5577C22.7502 22.5425 22.7312 22.5315 22.7155 22.5155L20.535 20.2956C20.3164 20.0728 19.9943 19.9918 19.7011 20.0872C19.4071 20.1817 19.1885 20.4348 19.1338 20.7444C18.8904 22.1409 19.0908 23.5575 19.668 24.8054L3.8632 36.2796H0.828125C0.370172 36.2796 0 36.6567 0 37.1233V40.4983C0 40.9649 0.370172 41.3421 0.828125 41.3421H3.31333V48.0921H0.828125C0.370172 48.0921 0 48.4692 0 48.9358V52.3108C0 52.7774 0.370172 53.1546 0.828125 53.1546ZM19.8617 9.84235V2.53294H33.1134V9.84235L31.0439 12.6579H21.9312L19.8617 9.84235ZM26.2292 23.7102C26.8561 23.0732 27.2006 22.2252 27.2006 21.3241C27.2006 20.4221 26.8561 19.575 26.23 18.9371L23.2016 15.8498V14.3463H29.6146L28.986 17.5475C28.9802 17.5745 28.9893 17.6006 28.986 17.6285C28.9802 17.6867 28.9802 17.7424 28.9869 17.8006C28.9918 17.8538 29.0009 17.9035 29.0158 17.9542C29.0307 18.0056 29.0506 18.0529 29.0755 18.101C29.102 18.1524 29.1318 18.198 29.1682 18.2427C29.1856 18.2638 29.1922 18.2908 29.2121 18.3102C30.1471 19.262 30.6555 20.5386 30.6456 21.9046C30.6357 23.2698 30.1106 24.5514 29.1682 25.5116C28.2291 26.4684 26.9811 26.9949 25.6545 26.9949C24.3278 26.9949 23.0798 26.4684 22.1408 25.5116C22.0596 25.4289 21.9925 25.3353 21.9172 25.2475L22.9043 24.5303C24.043 24.8889 25.3307 24.6257 26.2292 23.7102ZM20.7884 22.9382L21.3946 23.555L21.0509 23.8039C20.9408 23.5229 20.8472 23.2352 20.7884 22.9382ZM20.5607 26.2322C20.6915 26.3925 20.8232 26.5545 20.9698 26.7038C22.2617 28.0201 23.9577 28.6782 25.6545 28.6782C27.3513 28.6782 29.0481 28.0201 30.3392 26.7038C30.721 26.3149 31.0439 25.8829 31.3189 25.4247L46.2731 36.2796H6.71692L20.5607 26.2322ZM1.65625 37.9671H51.3438V39.6546H1.65625V37.9671ZM4.96958 41.3421H48.0312V48.0921H4.96958V41.3421ZM1.65625 49.7796H51.3438V51.4671H1.65625V49.7796Z" fill="#2B9DD4"/>
<path d="M31.4555 43.8733H21.518C21.0601 43.8733 20.6899 44.2505 20.6899 44.7171C20.6899 45.1837 21.0601 45.5608 21.518 45.5608H31.4555C31.9135 45.5608 32.2836 45.1837 32.2836 44.7171C32.2836 44.2505 31.9135 43.8733 31.4555 43.8733Z" fill="#2B9DD4"/>
</g>
<defs>
<clipPath id="clip0_2_11654">
<rect width="53" height="54" fill="white"/>
</clipPath>
</defs>
</svg>
