<svg width="55" height="52" viewBox="0 0 55 52" fill="none" xmlns="http://www.w3.org/2000/svg">
<g clip-path="url(#clip0_2_11657)">
<path d="M50.5841 26.014C53.2333 21.3427 53.7741 16.6679 51.5658 13.0522C49.3576 9.43645 44.8366 7.55406 39.256 7.37726C38.8508 6.74654 38.4121 6.13565 37.9415 5.54686C38.4272 4.95049 38.692 4.21957 38.695 3.46687C38.6981 1.55512 37.0615 0.00303786 35.0396 4.53641e-06C34.0481 -0.00151212 33.0984 0.377328 32.4076 1.04975C30.9675 0.370503 29.3823 0.0114878 27.7729 0.000221202C23.328 0.000221202 19.292 2.81514 16.3284 7.37379C10.7093 7.53326 6.14336 9.42865 3.93054 13.0522C1.71771 16.6757 2.26679 21.3409 4.91503 26.0122C2.62338 30.0102 1.90471 34.0159 3.14037 37.3881C1.69056 38.7185 1.65607 40.9083 3.06326 42.2791C4.32344 43.5065 6.34331 43.6787 7.81535 42.6842C10.4479 44.049 13.4049 44.7571 16.4072 44.7417C19.3607 49.231 23.3647 52 27.7739 52C32.183 52 36.1668 49.244 39.1176 44.7729C40.4112 44.7418 41.6995 44.6035 42.9675 44.3595C44.0826 45.9577 46.3568 46.3988 48.0472 45.3446C49.0709 44.7062 49.6893 43.6262 49.6949 42.4667C49.6909 42.1132 49.6292 41.7623 49.5116 41.4267C50.3262 40.7419 51.0204 39.9393 51.5686 39.0486C53.7347 35.5005 53.3772 30.8864 50.5841 26.014ZM49.9782 13.9188C51.7446 16.8118 51.4448 20.5167 49.5098 24.3301C47.7734 21.8364 45.688 19.5765 43.3104 17.6117C42.7021 14.6593 41.6797 11.7969 40.2707 9.10018C44.7 9.43471 48.22 11.0398 49.9782 13.9188ZM43.8072 20.4344H43.81C45.6181 22.1263 47.1976 24.0235 48.5124 26.0824C47.1896 28.136 45.6047 30.0279 43.7935 31.7158C44.0617 29.8211 44.1959 27.9116 44.195 26.0001C44.1935 24.1388 44.0639 22.2797 43.8072 20.4344ZM42.3616 26.0001C42.3668 28.5511 42.1213 31.0971 41.6283 33.6051C39.582 35.2581 37.3781 36.7285 35.0448 37.9973H35.043C32.7226 39.2644 30.283 40.3254 27.7555 41.1667C25.2224 40.3274 22.7778 39.2662 20.4534 37.9973C18.1426 36.7398 15.9584 35.2847 13.9286 33.6501C12.9431 28.6452 12.9325 23.512 13.8974 18.5035C15.9319 16.8466 18.1269 15.3746 20.4534 14.1069C22.7762 12.8343 25.2185 11.7676 27.7491 10.9202C32.8315 12.6258 37.5386 15.2007 41.6356 18.5165C42.1197 20.9847 42.3628 23.4898 42.3616 26.0001ZM38.1734 9.03518C39.4015 11.1693 40.3465 13.4387 40.9866 15.7917C39.3882 14.6267 37.7105 13.5624 35.9642 12.6058C34.2252 11.6562 32.4216 10.8165 30.5651 10.0925C33.0449 9.44273 35.6007 9.08751 38.1734 9.03518ZM35.0283 1.73355C36.0409 1.73355 36.8617 2.50954 36.8617 3.46687C36.8617 4.42421 36.0409 5.2002 35.0283 5.2002C34.0158 5.2002 33.195 4.42421 33.195 3.46687C33.195 2.50954 34.0158 1.73355 35.0283 1.73355ZM27.7729 1.73355C29.0662 1.7446 30.3407 2.028 31.5038 2.56294C31.4139 2.85696 31.3661 3.16094 31.3617 3.46687C31.3551 5.37527 32.986 6.92724 35.0045 6.93353C35.5232 6.93515 36.0363 6.83234 36.5097 6.63193C36.7071 6.87925 36.8998 7.13286 37.0881 7.39286C33.908 7.56261 30.767 8.13927 27.7509 9.10712C24.7374 8.13916 21.5988 7.56251 18.4211 7.39286C20.9557 3.86294 24.2172 1.73355 27.7729 1.73355ZM17.3532 9.03865H17.3551C19.9194 9.09303 22.4667 9.44782 24.9386 10.0951C23.0827 10.8191 21.2796 11.6587 19.5413 12.6084C17.8084 13.554 16.1427 14.6054 14.5547 15.7562C15.1921 13.4168 16.132 11.1606 17.3532 9.03865ZM5.52278 13.9188C7.29102 11.0224 10.844 9.41738 15.3109 9.09585C13.8935 11.7698 12.8632 14.6121 12.2474 17.5458C9.84427 19.5232 7.73629 21.7999 5.98111 24.3136C4.05704 20.5063 3.7582 16.8074 5.52278 13.9188ZM11.7634 31.7565V31.76C9.93582 30.0658 8.33671 28.1647 7.00227 26.0998C8.32846 24.0244 9.91944 22.1113 11.7396 20.4032C11.215 24.1719 11.223 27.9898 11.7634 31.7565ZM5.69511 41.6C4.68254 41.6 3.86179 40.8241 3.86179 39.8667C3.86179 38.9094 4.68254 38.1334 5.69511 38.1334C6.70768 38.1334 7.52844 38.9094 7.52844 39.8667C7.52844 40.8241 6.70757 41.6 5.69511 41.6ZM9.00793 41.3288C9.23836 40.872 9.35924 40.3727 9.36176 39.8667C9.36176 37.9522 7.72014 36.4001 5.69511 36.4001C5.38104 36.404 5.06892 36.4465 4.76653 36.5266C3.94704 33.9578 4.45762 30.9184 6.03611 27.8045C7.78293 30.3125 9.87968 32.5863 12.2694 34.5645C12.8938 37.4902 13.9322 40.3231 15.3567 42.9867C13.1382 42.8767 10.9717 42.3109 9.00793 41.3288ZM14.5867 36.368C16.1624 37.5129 17.8159 38.5586 19.5367 39.4984C21.2667 40.4399 23.0591 41.2748 24.9029 41.9978C22.4547 42.6329 19.9334 42.9822 17.3954 43.0378C16.1729 40.9321 15.2296 38.692 14.5867 36.368ZM27.7729 50.2667C24.2484 50.2667 21.0116 48.1763 18.4871 44.7027C21.6274 44.5192 24.7282 43.9436 27.7088 42.991C30.7168 43.9739 33.8532 44.5623 37.0303 44.74C34.5104 48.1919 31.2847 50.2667 27.7729 50.2667ZM38.145 43.0413C35.5857 42.9858 33.0433 42.6328 30.5752 41.99C32.4266 41.2735 34.2253 40.4411 35.9597 39.4984C37.7021 38.5473 39.3756 37.4876 40.9692 36.3264C40.325 38.6665 39.3764 40.922 38.145 43.0413ZM46.0283 44.2C45.0157 44.2 44.195 43.424 44.195 42.4667C44.195 41.5094 45.0157 40.7334 46.0283 40.7334C47.0408 40.7334 47.8616 41.5094 47.8616 42.4667C47.8616 43.424 47.0407 44.2 46.0283 44.2ZM49.9782 38.1854C49.5748 38.8277 49.078 39.4132 48.5024 39.9248C47.0252 38.6258 44.7138 38.7048 43.3397 40.1015C42.7078 40.7438 42.3581 41.5894 42.3616 42.4667C42.3616 42.5482 42.3809 42.6244 42.3873 42.7042C41.6628 42.8343 40.9311 42.9248 40.1956 42.9754C41.6245 40.2993 42.6642 37.4528 43.2865 34.5133C45.6614 32.5414 47.7451 30.2764 49.4813 27.7794C51.4925 31.7409 51.6813 35.3956 49.9782 38.1854Z" fill="#2B9DD4"/>
<path d="M27.695 17.3335C22.6324 17.3335 18.5284 21.2136 18.5284 26.0001C18.5284 30.7866 22.6324 34.6667 27.695 34.6667C32.7576 34.6667 36.8617 30.7866 36.8617 26.0001C36.856 21.2158 32.7552 17.3387 27.695 17.3335ZM27.695 32.9334C23.645 32.9334 20.3617 29.8292 20.3617 26.0001C20.3617 22.171 23.645 19.0668 27.695 19.0668C31.7451 19.0668 35.0283 22.171 35.0283 26.0001C35.0237 29.8275 31.7432 32.9291 27.695 32.9334Z" fill="#2B9DD4"/>
</g>
<defs>
<clipPath id="clip0_2_11657">
<rect width="55" height="52" fill="white"/>
</clipPath>
</defs>
</svg>
