<svg width="52" height="52" viewBox="0 0 52 52" fill="none" xmlns="http://www.w3.org/2000/svg">
<g clip-path="url(#clip0_2_11580)">
<path d="M49.6994 17.0223C50.1202 17.0223 50.4611 16.6813 50.4611 16.2606V13.8153C51.3292 13.6937 52 12.9482 52 12.0471V9.99527C52 9.00961 51.1981 8.20757 50.2123 8.20757H41.5353V5.60777C42.4034 5.4861 43.0742 4.74053 43.0742 3.83947V1.7877C43.0743 0.801937 42.2723 0 41.2867 0H10.7133C9.72766 0 8.92572 0.801937 8.92572 1.7877V3.83957C8.92572 4.74063 9.59654 5.4861 10.4646 5.60787V8.20767H1.7877C0.801937 8.20757 0 9.00961 0 9.99527V12.0471C0 12.9482 0.67082 13.6937 1.53887 13.8154V27.3095C0.67082 27.4312 0 28.1768 0 29.0779V31.1297C0 32.0308 0.67082 32.7762 1.53887 32.898V34.986C1.53887 35.4068 1.87982 35.7478 2.30059 35.7478C2.72137 35.7478 3.06231 35.4068 3.06231 34.986V32.9174H10.4646V46.3728H3.06231V38.543C3.06231 38.1222 2.72137 37.7812 2.30059 37.7812C1.87982 37.7812 1.53887 38.1222 1.53887 38.543V46.3922C0.67082 46.5139 0 47.2594 0 48.1604V50.2123C0 51.1981 0.801937 52 1.7877 52H50.2124C51.1981 52 52.0001 51.1981 52.0001 50.2123V48.1604C52.0001 47.2594 51.3293 46.5139 50.4612 46.3921V32.8979C51.3292 32.7762 52 32.0308 52 31.1297V29.0779C52 28.1768 51.3292 27.4313 50.4611 27.3095V19.821C50.4611 19.4003 50.1202 19.0593 49.6994 19.0593C49.2786 19.0593 48.9377 19.4003 48.9377 19.821V27.2901H43.053C43.0658 27.2036 43.0748 27.1158 43.0748 27.0257V24.9742C43.0748 24.0733 42.4038 23.328 41.5355 23.2061V13.8348H48.9378V16.2607C48.9377 16.6813 49.2786 17.0223 49.6994 17.0223ZM34.7326 23.1867C33.542 19.5 30.0777 16.8256 26 16.8256C21.9223 16.8256 18.458 19.5 17.2673 23.1867H11.988V20.9454C11.988 20.5247 11.6471 20.1837 11.2263 20.1837C10.8055 20.1837 10.4646 20.5247 10.4646 20.9454V23.2062C9.59623 23.3281 8.92531 24.0735 8.92531 24.9743V27.0258C8.92531 27.1159 8.93415 27.2037 8.94715 27.2903H3.06231V13.8348H10.4646V17.3889C10.4646 17.8097 10.8055 18.1506 11.2263 18.1506C11.6471 18.1506 11.988 17.8097 11.988 17.3889V5.62717H40.012V23.1867H34.7326ZM41.5354 46.3728V32.9173H48.9377V46.3727H41.5354V46.3728ZM40.012 46.3728H11.988V28.8133H17.2673C18.458 32.5 21.9223 35.1744 26 35.1744C30.0777 35.1744 33.542 32.5 34.7326 28.8133H40.012V46.3728ZM10.7138 24.7102H16.9167C16.857 25.1317 16.8256 25.5623 16.8256 26C16.8256 26.4377 16.857 26.8683 16.9167 27.2898H10.7138C10.5677 27.2898 10.4487 27.1713 10.4487 27.0257V24.9742C10.4487 24.8287 10.5677 24.7102 10.7138 24.7102ZM33.651 26C33.651 30.2188 30.2188 33.651 26 33.651C21.7812 33.651 18.349 30.2188 18.349 26C18.349 21.7812 21.7812 18.349 26 18.349C30.2188 18.349 33.651 21.7812 33.651 26ZM10.4492 1.7877C10.4492 1.64196 10.5677 1.52344 10.7134 1.52344H41.2867C41.4324 1.52344 41.5509 1.64196 41.5509 1.7877V3.83957C41.5509 3.98531 41.4324 4.10384 41.2867 4.10384H10.7133C10.5676 4.10384 10.4491 3.98531 10.4491 3.83957L10.4492 1.7877ZM1.52344 9.99527C1.52344 9.84953 1.64196 9.73101 1.7877 9.73101H10.4647V12.3113H1.7877C1.64196 12.3113 1.52344 12.1928 1.52344 12.047V9.99527ZM1.7877 31.3939C1.64196 31.3939 1.52344 31.2754 1.52344 31.1296V29.0777C1.52344 28.932 1.64196 28.8135 1.7877 28.8135H10.4647V31.3938H1.7877V31.3939ZM1.52344 50.2123V48.1604C1.52344 48.0147 1.64196 47.8962 1.7877 47.8962H8.94745C8.93455 47.9826 8.92572 48.0703 8.92572 48.1604V50.2123C8.92572 50.3023 8.93455 50.39 8.94745 50.4766H1.7877C1.64196 50.4766 1.52344 50.358 1.52344 50.2123ZM10.7133 50.4766C10.5676 50.4766 10.4491 50.358 10.4491 50.2123V48.1604C10.4491 48.0147 10.5676 47.8962 10.7133 47.8962H41.2866C41.4323 47.8962 41.5508 48.0147 41.5508 48.1604V50.2123C41.5508 50.358 41.4323 50.4766 41.2866 50.4766H10.7133ZM50.4766 50.2123C50.4766 50.358 50.358 50.4766 50.2123 50.4766H43.0525C43.0654 50.3901 43.0743 50.3024 43.0743 50.2123V48.1604C43.0743 48.0704 43.0654 47.9827 43.0525 47.8962H50.2123C50.358 47.8962 50.4766 48.0147 50.4766 48.1604V50.2123ZM50.4766 31.1297C50.4766 31.2755 50.358 31.394 50.2123 31.394H41.5353V28.8137H50.2123C50.358 28.8137 50.4766 28.9322 50.4766 29.078V31.1297ZM41.5512 27.0258C41.5512 27.1714 41.4323 27.2899 41.2862 27.2899H35.0833C35.143 26.8684 35.1744 26.4378 35.1744 26.0001C35.1744 25.5624 35.143 25.1318 35.0833 24.7103H41.2862C41.4323 24.7103 41.5512 24.8288 41.5512 24.9744V27.0258ZM41.5354 9.73101H50.2124C50.3581 9.73101 50.4767 9.84953 50.4767 9.99527V12.0471C50.4767 12.1929 50.3581 12.3114 50.2124 12.3114H41.5354V9.73101Z" fill="#2B9DD4"/>
<path d="M29.8394 27.0167C29.8377 23.2438 26.532 21.3148 26.3911 21.2346C26.2689 21.1648 26.1378 21.134 26.0046 21.1347C25.8685 21.1312 25.7339 21.1633 25.6089 21.2346C25.4679 21.3149 22.1563 23.2471 22.1604 27.0259C22.1604 27.0308 22.1605 27.0362 22.1606 27.0416V27.0459C22.1714 29.1529 23.8918 30.8654 26 30.8654C28.1113 30.8654 29.8337 29.1476 29.8396 27.034C29.8396 27.0292 29.8395 27.0239 29.8394 27.0186C29.8394 27.018 29.8394 27.0174 29.8394 27.0167ZM28.3159 27.0322C28.3126 28.3059 27.2736 29.342 26 29.342C24.7289 29.342 23.6916 28.3098 23.6839 27.0417C23.6841 27.0361 23.6841 27.0307 23.6841 27.0251C23.6814 24.7661 25.2646 23.3413 25.9999 22.8015C26.7356 23.3417 28.3144 24.7632 28.3161 27.0168C28.316 27.0219 28.3159 27.027 28.3159 27.0322Z" fill="#2B9DD4"/>
</g>
<defs>
<clipPath id="clip0_2_11580">
<rect width="52" height="52" fill="white"/>
</clipPath>
</defs>
</svg>
