<svg width="31" height="31" viewBox="0 0 31 31" fill="none" xmlns="http://www.w3.org/2000/svg">
<g clip-path="url(#clip0_55_1898)">
<path d="M30.5082 16.5773L17.8069 3.87611C17.651 3.72018 17.4659 3.59649 17.2621 3.5121C17.0584 3.42771 16.8401 3.38428 16.6195 3.38428C16.399 3.38428 16.1807 3.42771 15.9769 3.5121C15.7732 3.59649 15.5881 3.72018 15.4322 3.87611L7.26044 12.0479C7.1045 12.2038 6.98079 12.3889 6.89639 12.5927C6.81199 12.7964 6.76855 13.0148 6.76855 13.2353C6.76855 13.4558 6.81199 13.6742 6.89639 13.8779C6.98079 14.0817 7.1045 14.2668 7.26044 14.4227L19.9617 27.1239C20.1176 27.2799 20.3027 27.4036 20.5064 27.4879C20.7102 27.5723 20.9285 27.6158 21.149 27.6158C21.3696 27.6158 21.5879 27.5723 21.7917 27.4879C21.9954 27.4036 22.1805 27.2799 22.3364 27.1239L30.5082 18.9522C30.6642 18.7962 30.7879 18.6111 30.8723 18.4074C30.9567 18.2036 31.0001 17.9853 31.0001 17.7647C31.0001 17.5442 30.9567 17.3259 30.8723 17.1221C30.7879 16.9184 30.6642 16.7333 30.5082 16.5773ZM16.6196 4.35498C16.7127 4.35472 16.8049 4.37292 16.8909 4.40854C16.9769 4.44416 17.055 4.49648 17.1206 4.56247L29.8219 17.2637C29.8877 17.3295 29.9399 17.4076 29.9755 17.4936C30.0112 17.5795 30.0295 17.6717 30.0295 17.7647C30.0295 17.8578 30.0112 17.9499 29.9755 18.0359C29.9399 18.1219 29.8877 18.2 29.8219 18.2657L29.6771 18.4106L19.6327 16.5616C19.1838 16.4772 18.7709 16.2593 18.4479 15.9364C18.125 15.6134 17.9071 15.2005 17.8227 14.7517L15.9737 4.7073L16.1186 4.56247C16.1842 4.49648 16.2623 4.44416 16.3483 4.40854C16.4343 4.37292 16.5265 4.35472 16.6196 4.35498ZM21.6501 26.4376C21.6054 26.482 21.555 26.5203 21.5003 26.5515L21.9454 19.1692C21.9505 19.1048 21.9427 19.0401 21.9226 18.9789C21.9024 18.9176 21.8702 18.8609 21.8278 18.8122C21.7855 18.7635 21.7339 18.7238 21.676 18.6952C21.6181 18.6667 21.5551 18.65 21.4907 18.6462C21.4263 18.6423 21.3618 18.6513 21.3009 18.6726C21.24 18.694 21.184 18.7273 21.1361 18.7705C21.0883 18.8138 21.0495 18.8662 21.0221 18.9246C20.9947 18.983 20.9792 19.0463 20.9766 19.1108L20.5413 26.3308L8.05361 13.8432L15.2737 13.4078C15.4004 13.3977 15.5181 13.3384 15.6015 13.2424C15.6849 13.1465 15.7273 13.0217 15.7197 12.8948C15.712 12.7679 15.6549 12.6491 15.5606 12.5639C15.4663 12.4787 15.3423 12.4338 15.2153 12.4391L7.83291 12.8842C7.86405 12.8294 7.90235 12.779 7.9468 12.7344L15.1403 5.54079L16.8684 14.9274C16.9891 15.5694 17.3007 16.16 17.7626 16.6219C18.2244 17.0838 18.815 17.3955 19.4569 17.5162L28.8435 19.2441L21.6501 26.4376Z" fill="white"/>
<path d="M14.4727 24.4258H1.51488C1.38616 24.4258 1.26271 24.4769 1.17169 24.5679C1.08068 24.659 1.02954 24.7824 1.02954 24.9111C1.02954 25.0398 1.08068 25.1633 1.17169 25.2543C1.26271 25.3453 1.38616 25.3965 1.51488 25.3965H14.4727C14.5364 25.3965 14.5996 25.3839 14.6584 25.3595C14.7173 25.3351 14.7708 25.2994 14.8159 25.2543C14.861 25.2092 14.8967 25.1557 14.9211 25.0969C14.9455 25.038 14.958 24.9749 14.958 24.9111C14.958 24.8474 14.9455 24.7843 14.9211 24.7254C14.8967 24.6665 14.861 24.613 14.8159 24.5679C14.7708 24.5229 14.7173 24.4871 14.6584 24.4627C14.5996 24.4383 14.5364 24.4258 14.4727 24.4258Z" fill="white"/>
<path d="M3.45215 21.5107C3.45215 21.6395 3.50328 21.7629 3.5943 21.8539C3.68532 21.9449 3.80877 21.9961 3.93749 21.9961H9.63041C9.75913 21.9961 9.88258 21.9449 9.9736 21.8539C10.0646 21.7629 10.1158 21.6395 10.1158 21.5107C10.1158 21.382 10.0646 21.2586 9.9736 21.1675C9.88258 21.0765 9.75913 21.0254 9.63041 21.0254H3.93749C3.80877 21.0254 3.68532 21.0765 3.5943 21.1675C3.50328 21.2586 3.45215 21.382 3.45215 21.5107Z" fill="white"/>
<path d="M2.00029 21.5195C2.00029 21.3908 1.94915 21.2674 1.85813 21.1763C1.76711 21.0853 1.64366 21.0342 1.51494 21.0342H0.485344C0.421608 21.0342 0.358495 21.0467 0.299611 21.0711C0.240726 21.0955 0.187222 21.1313 0.142154 21.1763C0.0970856 21.2214 0.0613354 21.2749 0.0369446 21.3338C0.0125538 21.3927 0 21.4558 0 21.5195C0 21.5833 0.0125538 21.6464 0.0369446 21.7053C0.0613354 21.7641 0.0970856 21.8176 0.142154 21.8627C0.187222 21.9078 0.240726 21.9435 0.299611 21.9679C0.358495 21.9923 0.421608 22.0049 0.485344 22.0049H1.51494C1.64366 22.0049 1.76711 21.9537 1.85813 21.8627C1.94915 21.7717 2.00029 21.6482 2.00029 21.5195Z" fill="white"/>
<path d="M0.485344 18.5962H5.7996C5.92832 18.5962 6.05177 18.545 6.14279 18.454C6.23381 18.363 6.28495 18.2396 6.28495 18.1108C6.28495 17.9821 6.23381 17.8587 6.14279 17.7676C6.05177 17.6766 5.92832 17.6255 5.7996 17.6255H0.485344C0.356623 17.6255 0.233173 17.6766 0.142154 17.7676C0.0511343 17.8587 0 17.9821 0 18.1108C0 18.2396 0.0511343 18.363 0.142154 18.454C0.233173 18.545 0.356623 18.5962 0.485344 18.5962Z" fill="white"/>
</g>
<defs>
<clipPath id="clip0_55_1898">
<rect width="31" height="31" fill="white"/>
</clipPath>
</defs>
</svg>
