<svg width="31" height="31" viewBox="0 0 31 31" fill="none" xmlns="http://www.w3.org/2000/svg">
<g clip-path="url(#clip0_114_677)">
<path d="M30.5082 16.5773L17.8069 3.87609C17.651 3.72016 17.4659 3.59647 17.2621 3.51208C17.0584 3.42769 16.8401 3.38426 16.6195 3.38426C16.399 3.38426 16.1807 3.42769 15.9769 3.51208C15.7732 3.59647 15.5881 3.72016 15.4322 3.87609L7.26044 12.0479C7.1045 12.2038 6.98079 12.3889 6.89639 12.5926C6.81199 12.7964 6.76855 13.0147 6.76855 13.2353C6.76855 13.4558 6.81199 13.6742 6.89639 13.8779C6.98079 14.0816 7.1045 14.2668 7.26044 14.4227L19.9617 27.1239C20.1176 27.2798 20.3027 27.4035 20.5064 27.4879C20.7102 27.5723 20.9285 27.6157 21.149 27.6157C21.3696 27.6157 21.5879 27.5723 21.7917 27.4879C21.9954 27.4035 22.1805 27.2798 22.3364 27.1239L30.5082 18.9521C30.6642 18.7962 30.7879 18.6111 30.8723 18.4074C30.9567 18.2036 31.0001 17.9853 31.0001 17.7647C31.0001 17.5442 30.9567 17.3258 30.8723 17.1221C30.7879 16.9184 30.6642 16.7332 30.5082 16.5773ZM16.6196 4.35496C16.7127 4.3547 16.8049 4.3729 16.8909 4.40852C16.9769 4.44413 17.055 4.49645 17.1206 4.56245L29.8219 17.2637C29.8877 17.3295 29.9399 17.4076 29.9755 17.4935C30.0112 17.5795 30.0295 17.6716 30.0295 17.7647C30.0295 17.8577 30.0112 17.9499 29.9755 18.0359C29.9399 18.1218 29.8877 18.1999 29.8219 18.2657L29.6771 18.4106L19.6327 16.5616C19.1838 16.4772 18.7709 16.2593 18.4479 15.9363C18.125 15.6134 17.9071 15.2005 17.8227 14.7516L15.9737 4.70728L16.1186 4.56245C16.1842 4.49645 16.2623 4.44413 16.3483 4.40852C16.4343 4.3729 16.5265 4.3547 16.6196 4.35496ZM21.6501 26.4376C21.6054 26.482 21.555 26.5203 21.5003 26.5514L21.9454 19.1691C21.9505 19.1048 21.9427 19.0401 21.9226 18.9788C21.9024 18.9175 21.8702 18.8609 21.8278 18.8122C21.7855 18.7635 21.7339 18.7237 21.676 18.6952C21.6181 18.6667 21.5551 18.65 21.4907 18.6461C21.4263 18.6423 21.3618 18.6513 21.3009 18.6726C21.24 18.694 21.184 18.7273 21.1361 18.7705C21.0883 18.8138 21.0495 18.8662 21.0221 18.9246C20.9947 18.983 20.9792 19.0463 20.9766 19.1108L20.5413 26.3308L8.05361 13.8431L15.2737 13.4078C15.4004 13.3977 15.5181 13.3383 15.6015 13.2424C15.6849 13.1465 15.7273 13.0217 15.7197 12.8948C15.712 12.7679 15.6549 12.6491 15.5606 12.5639C15.4663 12.4786 15.3423 12.4338 15.2153 12.4391L7.83291 12.8841C7.86405 12.8294 7.90235 12.779 7.9468 12.7344L15.1403 5.54077L16.8684 14.9274C16.9891 15.5694 17.3007 16.16 17.7626 16.6219C18.2244 17.0838 18.815 17.3955 19.4569 17.5162L28.8435 19.2441L21.6501 26.4376Z" fill="black"/>
<path d="M14.4729 24.4258H1.51513C1.38641 24.4258 1.26296 24.477 1.17194 24.568C1.08092 24.659 1.02979 24.7824 1.02979 24.9112C1.02979 25.0399 1.08092 25.1633 1.17194 25.2544C1.26296 25.3454 1.38641 25.3965 1.51513 25.3965H14.4729C14.5367 25.3965 14.5998 25.384 14.6587 25.3596C14.7176 25.3352 14.7711 25.2994 14.8161 25.2544C14.8612 25.2093 14.897 25.1558 14.9213 25.0969C14.9457 25.038 14.9583 24.9749 14.9583 24.9112C14.9583 24.8474 14.9457 24.7843 14.9213 24.7254C14.897 24.6665 14.8612 24.613 14.8161 24.568C14.7711 24.5229 14.7176 24.4872 14.6587 24.4628C14.5998 24.4384 14.5367 24.4258 14.4729 24.4258Z" fill="black"/>
<path d="M3.45215 21.511C3.45215 21.6397 3.50328 21.7631 3.5943 21.8542C3.68532 21.9452 3.80877 21.9963 3.93749 21.9963H9.63041C9.75913 21.9963 9.88258 21.9452 9.9736 21.8542C10.0646 21.7631 10.1158 21.6397 10.1158 21.511C10.1158 21.3823 10.0646 21.2588 9.9736 21.1678C9.88258 21.0768 9.75913 21.0256 9.63041 21.0256H3.93749C3.80877 21.0256 3.68532 21.0768 3.5943 21.1678C3.50328 21.2588 3.45215 21.3823 3.45215 21.511Z" fill="black"/>
<path d="M2.00029 21.5196C2.00029 21.3909 1.94915 21.2675 1.85813 21.1764C1.76711 21.0854 1.64366 21.0343 1.51494 21.0343H0.485344C0.421608 21.0343 0.358495 21.0468 0.299611 21.0712C0.240726 21.0956 0.187222 21.1314 0.142154 21.1764C0.0970856 21.2215 0.0613354 21.275 0.0369446 21.3339C0.0125538 21.3928 0 21.4559 0 21.5196C0 21.5834 0.0125538 21.6465 0.0369446 21.7054C0.0613354 21.7642 0.0970856 21.8178 0.142154 21.8628C0.187222 21.9079 0.240726 21.9436 0.299611 21.968C0.358495 21.9924 0.421608 22.005 0.485344 22.005H1.51494C1.64366 22.005 1.76711 21.9538 1.85813 21.8628C1.94915 21.7718 2.00029 21.6484 2.00029 21.5196Z" fill="black"/>
<path d="M0.485344 18.5961H5.7996C5.92832 18.5961 6.05177 18.545 6.14279 18.454C6.23381 18.363 6.28495 18.2395 6.28495 18.1108C6.28495 17.9821 6.23381 17.8586 6.14279 17.7676C6.05177 17.6766 5.92832 17.6254 5.7996 17.6254H0.485344C0.356623 17.6254 0.233173 17.6766 0.142154 17.7676C0.0511343 17.8586 0 17.9821 0 18.1108C0 18.2395 0.0511343 18.363 0.142154 18.454C0.233173 18.545 0.356623 18.5961 0.485344 18.5961Z" fill="black"/>
</g>
<defs>
<clipPath id="clip0_114_677">
<rect width="31" height="31" fill="white"/>
</clipPath>
</defs>
</svg>
