<svg width="16" height="16" viewBox="0 0 16 16" fill="none" xmlns="http://www.w3.org/2000/svg">
<path d="M8.00013 14.6666C11.6821 14.6666 14.667 11.6819 14.667 7.99998C14.667 4.31808 11.6821 1.33331 8.00013 1.33331C4.31811 1.33331 1.33325 4.31808 1.33325 7.99998C1.33325 11.6819 4.31811 14.6666 8.00013 14.6666Z" fill="white"/>
<path d="M7.71167 7.99993H14.6678C14.6678 7.39826 14.5876 6.81539 14.4382 6.26093H7.71167V7.99993Z" fill="#D80027"/>
<path d="M7.71167 4.52178H13.6894C13.2813 3.85589 12.7596 3.26732 12.1512 2.78278H7.71167V4.52178Z" fill="#D80027"/>
<path d="M8.00053 14.6667C9.56944 14.6667 11.0115 14.1244 12.1502 13.2175H3.85083C4.98958 14.1244 6.43162 14.6667 8.00053 14.6667Z" fill="#D80027"/>
<path d="M2.31233 11.4784H13.689C14.0167 10.9438 14.2708 10.3594 14.4379 9.73926H1.56348C1.73059 10.3594 1.98469 10.9438 2.31233 11.4784Z" fill="#D80027"/>
<path d="M4.42123 2.37432H5.02873L4.46365 2.78484L4.6795 3.44908L4.11445 3.03857L3.5494 3.44908L3.73584 2.87525C3.23832 3.28967 2.80224 3.7752 2.44289 4.3162H2.63754L2.27784 4.57751C2.2218 4.67099 2.16806 4.76596 2.11655 4.86233L2.28831 5.39096L1.96786 5.15814C1.8882 5.3269 1.81534 5.49947 1.74985 5.67563L1.93908 6.25808H2.63754L2.07246 6.66859L2.28831 7.33284L1.72326 6.92232L1.38479 7.16824C1.35091 7.44056 1.33325 7.71794 1.33325 7.99945H7.9996C7.9996 4.31787 7.9996 3.88384 7.9996 1.33331C6.68268 1.33331 5.45506 1.71531 4.42123 2.37432ZM4.6795 7.33284L4.11445 6.92232L3.5494 7.33284L3.76524 6.66859L3.20017 6.25808H3.89862L4.11445 5.59384L4.33027 6.25808H5.02873L4.46365 6.66859L4.6795 7.33284ZM4.46365 4.72672L4.6795 5.39096L4.11445 4.98045L3.5494 5.39096L3.76524 4.72672L3.20017 4.3162H3.89862L4.11445 3.65196L4.33027 4.3162H5.02873L4.46365 4.72672ZM7.07068 7.33284L6.50563 6.92232L5.94058 7.33284L6.15643 6.66859L5.59135 6.25808H6.28981L6.50563 5.59384L6.72146 6.25808H7.41991L6.85484 6.66859L7.07068 7.33284ZM6.85484 4.72672L7.07068 5.39096L6.50563 4.98045L5.94058 5.39096L6.15643 4.72672L5.59135 4.3162H6.28981L6.50563 3.65196L6.72146 4.3162H7.41991L6.85484 4.72672ZM6.85484 2.78484L7.07068 3.44908L6.50563 3.03857L5.94058 3.44908L6.15643 2.78484L5.59135 2.37432H6.28981L6.50563 1.71008L6.72146 2.37432H7.41991L6.85484 2.78484Z" fill="#1A47B8"/>
</svg>
