<svg width="26" height="26" viewBox="0 0 26 26" fill="none" xmlns="http://www.w3.org/2000/svg">
<path fill-rule="evenodd" clip-rule="evenodd" d="M0.0344017 23.2303C0.0344017 26.0678 -0.348906 26.2795 1.80189 25.612C3.53086 25.0755 5.30985 22.9846 6.5451 22.9846C6.98133 22.9846 7.8438 23.4795 8.18221 23.6816C9.21414 24.2977 9.56581 24.8446 11.0526 25.4792C13.0229 26.3203 14.7835 25.8339 16.3738 24.7056C16.8355 24.378 17.2357 24.0229 17.7288 23.7267C20.054 22.3295 20.1899 23.1848 22.5688 24.7732C22.8164 24.9386 23.0845 25.0999 23.3412 25.2292L24.1875 25.6114C24.5253 25.7271 24.8252 25.7732 25.2077 25.8409C26.1569 26.0088 25.9543 26.1135 25.9543 23.2303C25.9543 22.6288 25.6101 23.1467 24.438 22.4126C22.2856 21.0646 20.1559 18.7498 16.606 20.884C16.4649 20.9688 16.4932 20.9663 16.3146 21.084C13.1622 23.1613 13.3036 23.681 10.0561 21.3163C9.5506 20.9483 9.20995 20.7898 8.65378 20.5074C5.11065 18.7087 2.17968 22.396 0.813527 22.781C0.357721 22.9094 0.0344017 22.7442 0.0344017 23.2303Z" fill="#2B9DD4"/>
<path fill-rule="evenodd" clip-rule="evenodd" d="M0.0342892 3.3297C0.0342892 5.60844 -0.193614 5.90941 0.525684 5.90941C1.57959 5.90941 2.7682 5.19478 3.57258 4.65682C4.82109 3.8219 5.3338 3.08403 6.66782 3.08403C7.96255 3.08403 9.45602 4.84172 10.928 5.45743C16.2048 7.66479 17.5154 1.19318 21.0595 3.67925C22.3399 4.57742 23.9063 5.90941 25.5857 5.90941C26.1915 5.90941 25.9542 4.94079 25.9542 3.3297C25.9542 2.77914 25.3963 2.99154 24.4239 2.40311C22.5077 1.24351 19.9252 -1.66589 16.0382 1.27569C12.6944 3.80622 12.8306 3.17688 10.0342 1.31466C5.79364 -1.50925 4.04224 0.903779 1.56457 2.40311C0.592191 2.99154 0.0342892 2.77914 0.0342892 3.3297Z" fill="#2B9DD4"/>
<path fill-rule="evenodd" clip-rule="evenodd" d="M0.0342892 13.28C0.0342892 15.5588 -0.193614 15.8597 0.525684 15.8597C1.6998 15.8597 2.93857 15.1083 3.66796 14.5797C4.30688 14.1166 5.61237 13.0344 6.54499 13.0344C8.56988 13.0344 9.59199 15.8597 13.1785 15.8597C16.0536 15.8597 17.5762 13.0344 19.4435 13.0344C20.3761 13.0344 21.6816 14.1166 22.3205 14.5797C23.1755 15.1993 25.9542 16.5592 25.9542 15.4912C25.9542 12.4662 26.1121 13.0859 25.301 12.8276C23.4221 12.2294 20.3925 7.96987 15.9154 11.3488C12.9733 13.5693 12.8196 13.2879 10.0575 11.3645C8.5626 10.3234 8.17677 10.0861 6.17645 10.0861C4.94139 10.0861 3.64182 10.9102 2.89341 11.4711C2.4212 11.825 2.01126 12.1219 1.52086 12.4326C1.35458 12.5379 0.983883 12.7292 0.780777 12.7981C0.382714 12.933 0.0342892 12.8233 0.0342892 13.28Z" fill="#2B9DD4"/>
</svg>
