<svg width="29" height="29" viewBox="0 0 29 29" fill="none" xmlns="http://www.w3.org/2000/svg">
<path d="M19.0202 2.375H9.43706C7.56456 2.3772 5.76939 3.12211 4.44544 4.44628C3.12149 5.77045 2.37689 7.56574 2.375 9.43825L2.375 19.0214C2.3772 20.8939 3.12211 22.689 4.44628 24.013C5.77045 25.3369 7.56574 26.0816 9.43825 26.0834H19.0214C20.8939 26.0812 22.689 25.3363 24.013 24.0122C25.3369 22.688 26.0816 20.8927 26.0834 19.0202V9.43706C26.0812 7.56456 25.3363 5.76939 24.0122 4.44544C22.688 3.12149 20.8927 2.37689 19.0202 2.375V2.375ZM23.6989 19.0202C23.6989 19.6346 23.5779 20.243 23.3428 20.8107C23.1077 21.3783 22.763 21.8941 22.3286 22.3286C21.8941 22.763 21.3783 23.1077 20.8107 23.3428C20.243 23.5779 19.6346 23.6989 19.0202 23.6989H9.43706C8.19639 23.6986 7.00663 23.2055 6.12945 22.3281C5.25228 21.4507 4.7595 20.2609 4.7595 19.0202V9.43706C4.75981 8.19639 5.25289 7.00663 6.13029 6.12945C7.0077 5.25228 8.19757 4.7595 9.43825 4.7595H19.0214C20.2621 4.75981 21.4518 5.25289 22.329 6.13029C23.2062 7.0077 23.6989 8.19757 23.6989 9.43825V19.0214V19.0202Z" fill="white"/>
<path d="M14.2288 8.09766C12.6036 8.10017 11.0457 8.74696 9.89663 9.89625C8.74757 11.0455 8.10108 12.6035 8.09888 14.2287C8.10076 15.8543 8.74728 17.4128 9.89663 18.5624C11.046 19.712 12.6043 20.3588 14.2299 20.361C15.8557 20.3591 17.4144 19.7124 18.564 18.5628C19.7136 17.4132 20.3603 15.8545 20.3622 14.2287C20.3597 12.6031 19.7126 11.0449 18.5628 9.89576C17.413 8.74663 15.8543 8.10041 14.2288 8.09884V8.09766ZM14.2288 17.9765C13.2351 17.9765 12.2821 17.5817 11.5795 16.8791C10.8769 16.1765 10.4822 15.2236 10.4822 14.2299C10.4822 13.2363 10.8769 12.2833 11.5795 11.5807C12.2821 10.8781 13.2351 10.4833 14.2288 10.4833C15.2224 10.4833 16.1754 10.8781 16.878 11.5807C17.5806 12.2833 17.9753 13.2363 17.9753 14.2299C17.9753 15.2236 17.5806 16.1765 16.878 16.8791C16.1754 17.5817 15.2224 17.9765 14.2288 17.9765Z" fill="white"/>
<path d="M20.3727 9.61268C21.184 9.61268 21.8417 8.95501 21.8417 8.14374C21.8417 7.33247 21.184 6.6748 20.3727 6.6748C19.5615 6.6748 18.9038 7.33247 18.9038 8.14374C18.9038 8.95501 19.5615 9.61268 20.3727 9.61268Z" fill="white"/>
</svg>
