<svg width="29" height="29" viewBox="0 0 29 29" fill="none" xmlns="http://www.w3.org/2000/svg">
<path d="M26.0763 16.2907V25.0533H20.9962V16.8773C20.9962 14.823 20.2611 13.4217 18.4229 13.4217C17.0192 13.4217 16.1833 14.367 15.8163 15.2801C15.6821 15.6067 15.6477 16.0615 15.6477 16.5187V25.0533H10.5652C10.5652 25.0533 10.6341 11.207 10.5652 9.77134H15.6477V11.9373L15.6144 11.9872H15.6477V11.9373C16.3222 10.8983 17.5275 9.41271 20.2267 9.41271C23.5695 9.41271 26.0763 11.5977 26.0763 16.2907ZM5.24994 2.40527C3.51262 2.40527 2.375 3.54527 2.375 5.04509C2.375 6.51165 3.47938 7.68609 5.18344 7.68609H5.21669C6.98962 7.68609 8.09044 6.51165 8.09044 5.04509C8.05956 3.54527 6.99081 2.40527 5.25112 2.40527H5.24994ZM2.67663 25.0533H7.75675V9.77134H2.67663V25.0533Z" fill="white"/>
</svg>
