<svg width="22" height="22" viewBox="0 0 22 22" fill="none" xmlns="http://www.w3.org/2000/svg">
<g clip-path="url(#clip0_55_1569)">
<path d="M16.8867 0C15.2874 0 13.9863 1.3011 13.9863 2.90041C13.9863 4.08455 14.7109 5.15044 15.8018 5.59044L16.6073 6.9926C16.6648 7.09264 16.7714 7.15434 16.8867 7.15434C17.0021 7.15434 17.1087 7.09264 17.1662 6.9926L17.9717 5.59044C19.0626 5.15039 19.7871 4.0845 19.7871 2.90041C19.7871 1.3011 18.486 0 16.8867 0ZM17.6418 5.02643C17.5693 5.05217 17.5085 5.10291 17.4702 5.16956L16.8867 6.18513L16.3033 5.16951C16.265 5.10287 16.2041 5.05212 16.1317 5.02638C15.234 4.70755 14.6309 3.85316 14.6309 2.90041C14.6309 1.6565 15.6428 0.644535 16.8867 0.644535C18.1306 0.644535 19.1426 1.6565 19.1426 2.90041C19.1426 3.85316 18.5395 4.70755 17.6418 5.02643Z" fill="black"/>
<path d="M16.8867 1.41797C16.1641 1.41797 15.5762 2.00587 15.5762 2.72852C15.5762 3.45118 16.1641 4.03908 16.8867 4.03908C17.6094 4.03908 18.1973 3.45118 18.1973 2.72852C18.1973 2.00587 17.6094 1.41797 16.8867 1.41797ZM16.8867 3.39454C16.5195 3.39454 16.2207 3.09578 16.2207 2.72852C16.2207 2.36127 16.5195 2.0625 16.8867 2.0625C17.254 2.0625 17.5527 2.36127 17.5527 2.72852C17.5527 3.09578 17.254 3.39454 16.8867 3.39454Z" fill="black"/>
<path d="M13.879 10.7208C12.383 10.7208 11.1658 11.938 11.1658 13.4341C11.1658 14.5391 11.8402 15.534 12.8565 15.9474L13.5995 17.2408C13.657 17.3408 13.7636 17.4025 13.879 17.4025C13.9943 17.4025 14.1009 17.3408 14.1584 17.2408L14.9014 15.9474C15.9177 15.5339 16.5922 14.5391 16.5922 13.4341C16.5922 11.938 15.3751 10.7208 13.879 10.7208ZM14.5714 15.3836C14.499 15.4093 14.4381 15.4601 14.3998 15.5267L13.879 16.4333L13.3582 15.5267C13.3199 15.4601 13.259 15.4093 13.1866 15.3836C12.3634 15.0912 11.8103 14.3077 11.8103 13.434C11.8103 12.2934 12.7383 11.3653 13.879 11.3653C15.0197 11.3653 15.9477 12.2933 15.9477 13.434C15.9477 14.3077 15.3946 15.0912 14.5714 15.3836Z" fill="black"/>
<path d="M13.8789 12.0358C13.1959 12.0358 12.6401 12.5915 12.6401 13.2746C12.6401 13.9576 13.1959 14.5134 13.8789 14.5134C14.562 14.5134 15.1177 13.9576 15.1177 13.2746C15.1177 12.5915 14.562 12.0358 13.8789 12.0358ZM13.8789 13.8688C13.5513 13.8688 13.2847 13.6022 13.2847 13.2746C13.2847 12.9469 13.5513 12.6803 13.8789 12.6803C14.2066 12.6803 14.4732 12.9469 14.4732 13.2746C14.4732 13.6022 14.2066 13.8688 13.8789 13.8688Z" fill="black"/>
<path d="M4.85547 7.34766C4.27501 7.34766 3.80273 7.81993 3.80273 8.4004C3.80273 8.98087 4.27501 9.45314 4.85547 9.45314C5.43594 9.45314 5.90822 8.98087 5.90822 8.4004C5.90822 7.81993 5.43594 7.34766 4.85547 7.34766ZM4.85547 8.8086C4.6304 8.8086 4.44727 8.62547 4.44727 8.4004C4.44727 8.17533 4.6304 7.99219 4.85547 7.99219C5.08055 7.99219 5.26368 8.17533 5.26368 8.4004C5.26368 8.62547 5.08055 8.8086 4.85547 8.8086Z" fill="black"/>
<path d="M19.2707 13.3503C19.2058 8.67027 15.3341 4.89407 10.6538 4.94185C8.94959 4.95926 7.36369 5.47927 6.03702 6.36005C5.68584 6.16798 5.28322 6.05862 4.85546 6.05862C3.49309 6.05862 2.38474 7.16696 2.38474 8.52934C2.38474 9.09945 2.58442 9.63738 2.92405 10.065C2.45624 11.1342 2.20066 12.3165 2.21334 13.5591C2.23079 15.2681 2.75681 16.8624 3.64782 18.1951C3.76035 18.3634 3.99875 18.3871 4.14196 18.2439C4.25046 18.1354 4.26618 17.9658 4.18098 17.8382C3.53232 16.8668 3.09335 15.744 2.92951 14.5349L4.883 14.7967C5.12784 14.8295 5.37169 14.7841 5.5883 14.6655L6.53344 14.1481C6.61771 14.1019 6.71284 14.0809 6.8087 14.0869L7.15147 14.1089C7.21373 14.1129 7.27474 14.1283 7.33138 14.1545L8.83108 14.8469C8.94379 14.899 9.0632 14.9367 9.18639 14.9518C9.26253 14.9612 9.33996 14.9633 9.41714 14.9575L9.58953 14.9445C9.75174 14.9322 9.88855 14.8063 9.89916 14.644C9.9121 14.4463 9.74753 14.2862 9.55331 14.3009L9.36854 14.3149C9.28264 14.3213 9.19649 14.3058 9.11829 14.2697L7.60161 13.5694C7.47236 13.5097 7.33477 13.4748 7.19259 13.4657L6.84978 13.4438C6.63193 13.4297 6.41545 13.4779 6.22394 13.5828L5.27883 14.1002C5.18353 14.1524 5.07632 14.1722 4.96864 14.1579L2.8678 13.8764C2.86097 13.742 2.85749 13.6068 2.85749 13.4708C2.85749 12.4356 3.0588 11.447 3.42313 10.5407C3.60077 10.668 3.79658 10.7726 4.00691 10.8497L4.55206 12.3761C4.59786 12.5044 4.71946 12.59 4.85555 12.59C4.85641 12.59 4.85727 12.59 4.85813 12.59C4.99524 12.5889 5.11667 12.5011 5.16076 12.3712L5.67316 10.861C6.65479 10.5171 7.32631 9.58225 7.32631 8.52938C7.32631 7.84226 7.04413 7.21999 6.58982 6.77169C7.16663 6.41281 7.79265 6.12582 8.45566 5.92456L10.2898 7.72096C10.3865 7.81562 10.4419 7.94745 10.4418 8.08267L10.4411 9.84591C10.441 10.0739 10.5087 10.2968 10.6355 10.4862L10.8167 10.7571C10.8292 10.7758 10.8423 10.7941 10.8558 10.8119C10.9352 10.9164 11.0895 10.9251 11.1823 10.8323L11.3259 10.6888C11.403 10.6116 11.4146 10.4905 11.3534 10.4001L11.3524 10.3986L11.1712 10.1277C11.1154 10.0444 11.0857 9.94641 11.0857 9.84621L11.0864 8.08293C11.0865 7.77549 10.9606 7.47574 10.7409 7.2605L9.1885 5.74013C9.69094 5.6392 10.2104 5.58596 10.7422 5.58596C13.4195 5.58596 15.7889 6.92754 17.2148 8.97338L16.4165 9.81454C16.4063 9.82537 16.3941 9.83409 16.3805 9.84032L15.9898 10.0203C15.7683 10.1223 15.841 10.4542 16.0849 10.4542C16.1803 10.5496 16.3251 10.5755 16.4476 10.519L16.6502 10.4257C16.7385 10.385 16.8173 10.3286 16.8841 10.2581L17.5717 9.53357C18.2426 10.6928 18.627 12.0377 18.627 13.4707C18.627 14.657 18.3631 15.7827 17.8918 16.793L17.4276 15.7303C17.3377 15.5243 17.0686 15.4734 16.9097 15.6324L16.9048 15.6373C16.812 15.7302 16.7855 15.8704 16.8381 15.9907L17.5057 17.5193C16.7116 18.8409 15.5415 19.912 14.1442 20.583L12.6607 19.9593C12.6381 19.9499 12.6228 19.9279 12.6217 19.9033L12.5798 18.953C12.5722 18.7794 12.501 18.6146 12.3798 18.4901L11.5263 17.6133C11.3918 17.4751 11.2116 17.399 11.0188 17.399H11.0173C10.826 17.399 10.6429 17.4768 10.5101 17.6144L9.59761 18.5594C9.55408 18.6045 9.51674 18.6552 9.48657 18.71L8.72551 20.0948C8.644 20.2431 8.61821 20.416 8.65302 20.5816L8.76268 21.1037C7.46488 20.767 6.29617 20.1069 5.34741 19.2153C5.22199 19.0974 5.02489 19.1024 4.90316 19.2241C4.77451 19.3528 4.77941 19.5617 4.91201 19.6862C6.3751 21.0606 8.32117 21.9276 10.4663 21.9956C15.3351 22.1501 19.338 18.2003 19.2707 13.3503ZM6.68164 8.52934C6.68164 9.35116 6.12829 10.0757 5.33598 10.2912C5.23251 10.3193 5.1498 10.3971 5.11538 10.4986L4.84768 11.2876L4.56082 10.4843C4.52597 10.3868 4.4464 10.3119 4.34692 10.2832C3.57108 10.0586 3.02928 9.33745 3.02928 8.52934C3.02928 7.52236 3.84848 6.70315 4.85546 6.70315C5.86244 6.70315 6.68164 7.52236 6.68164 8.52934ZM10.7422 21.3556C10.3028 21.3556 9.87192 21.3188 9.4519 21.2494L9.28385 20.4492C9.28071 20.4343 9.28303 20.4187 9.29038 20.4053L10.0513 19.0207C10.0541 19.0157 10.0575 19.0112 10.0613 19.0071L10.9727 18.0631C10.9883 18.0471 11.0062 18.0437 11.0185 18.0436H11.0187C11.031 18.0436 11.0489 18.047 11.0644 18.063L11.9178 18.9397C11.9288 18.951 11.9352 18.9658 11.9359 18.9815L11.9777 19.9318C11.9897 20.2039 12.1598 20.448 12.4109 20.5536L13.3026 20.9285C12.4995 21.2051 11.6381 21.3556 10.7422 21.3556Z" fill="black"/>
</g>
<defs>
<clipPath id="clip0_55_1569">
<rect width="22" height="22" fill="white"/>
</clipPath>
</defs>
</svg>
