<svg width="115" height="122" viewBox="0 0 115 122" fill="none" xmlns="http://www.w3.org/2000/svg">
<g clip-path="url(#clip0_29_2465)">
<path fill-rule="evenodd" clip-rule="evenodd" d="M39.0813 82.9283C51.1894 95.0364 70.8204 95.0364 82.9285 82.9283C95.0366 70.8202 95.0365 51.1892 82.9285 39.0811C70.8203 26.973 51.1894 26.973 39.0813 39.0812C26.9733 51.1892 26.9732 70.8202 39.0813 82.9283ZM84.8349 84.8347C71.6739 97.9956 50.3358 97.9956 37.1749 84.8347C24.0139 71.6737 24.014 50.3357 37.1749 37.1748C50.3359 24.0137 71.6738 24.0137 84.8349 37.1748C97.9958 50.3357 97.9959 71.6737 84.8349 84.8347Z" fill="white"/>
<path fill-rule="evenodd" clip-rule="evenodd" d="M61.9579 73.3963C61.4316 72.8699 61.4316 72.0162 61.9579 71.4899L72.4431 61.0047L61.9579 50.5195C61.4316 49.9932 61.4316 49.1395 61.9579 48.6131C62.4843 48.0868 63.338 48.0868 63.8643 48.6131L75.3027 60.0515C75.8291 60.5779 75.8291 61.4315 75.3027 61.9579L63.8643 73.3963C63.338 73.9226 62.4843 73.9226 61.9579 73.3963Z" fill="white"/>
<path fill-rule="evenodd" clip-rule="evenodd" d="M46.3119 61.0047C46.3121 60.2603 46.9156 59.6567 47.6601 59.6565L74.3497 59.6565C75.0941 59.6567 75.6977 60.2603 75.6979 61.0047C75.6977 61.7492 75.0941 62.3528 74.3497 62.3529L47.6601 62.3529C46.9157 62.3528 46.3121 61.7492 46.3119 61.0047Z" fill="white"/>
</g>
<defs>
<clipPath id="clip0_29_2465">
<rect width="86.2737" height="86.2737" fill="white" transform="translate(61.0049 122.009) rotate(-135)"/>
</clipPath>
</defs>
</svg>
