<svg width="110" height="110" viewBox="0 0 110 110" fill="none" xmlns="http://www.w3.org/2000/svg">
<g clip-path="url(#clip0_55_1798)">
<path d="M48.5278 38.833H35.5835C33.8037 38.833 32.3608 40.2759 32.3608 42.0557V55C32.3608 56.7798 33.8037 58.2227 35.5835 58.2227H45.3052V59.1357C45.3052 62.216 42.7995 64.7217 39.7192 64.7217H35.5835C33.8037 64.7217 32.3608 66.1646 32.3608 67.9443C32.3608 69.7241 33.8037 71.167 35.5835 71.167H39.7192C46.3534 71.167 51.7505 65.7699 51.7505 59.1357V42.0557C51.7505 40.2759 50.3076 38.833 48.5278 38.833ZM45.3052 51.7773H38.8062V45.2783H45.3052V51.7773Z" fill="#2B9DD4"/>
<path d="M74.4165 38.833H61.4722C59.6924 38.833 58.2495 40.2759 58.2495 42.0557V55C58.2495 56.7798 59.6924 58.2227 61.4722 58.2227H71.1938V59.1357C71.1938 62.216 68.6881 64.7217 65.6079 64.7217H61.4722C59.6924 64.7217 58.2495 66.1646 58.2495 67.9443C58.2495 69.7241 59.6924 71.167 61.4722 71.167H65.6079C72.2421 71.167 77.6392 65.7699 77.6392 59.1357V42.0557C77.6392 40.2759 76.1963 38.833 74.4165 38.833ZM71.1938 51.7773H64.6948V45.2783H71.1938V51.7773Z" fill="#2B9DD4"/>
<path d="M93.891 16.109C83.5027 5.72107 69.691 0 55 0C40.309 0 26.4973 5.72107 16.109 16.109C5.72107 26.4973 0 40.309 0 55C0 66.8007 3.83797 78.3587 10.8496 87.7968L0.459121 105.12C-0.13793 106.115 -0.153613 107.355 0.418516 108.365C0.99043 109.376 2.06186 110 3.22266 110H55C69.691 110 83.5027 104.279 93.891 93.891C104.279 83.5027 110 69.691 110 55C110 40.309 104.279 26.4973 93.891 16.109ZM55 103.555H8.91365L17.5108 89.2218C18.2074 88.0606 18.1038 86.5878 17.2515 85.5357C10.2829 76.9328 6.44531 66.0881 6.44531 55C6.44531 28.2268 28.2268 6.44531 55 6.44531C81.7732 6.44531 103.555 28.2268 103.555 55C103.555 81.7732 81.7732 103.555 55 103.555Z" fill="#2B9DD4"/>
</g>
<defs>
<clipPath id="clip0_55_1798">
<rect width="110" height="110" fill="white"/>
</clipPath>
</defs>
</svg>
