<svg width="41" height="41" viewBox="0 0 41 41" fill="none" xmlns="http://www.w3.org/2000/svg">
<g clip-path="url(#clip0_29_2448)">
<path d="M12.2729 8.31816H28.6783C28.988 8.31816 29.2388 8.06716 29.2388 7.75869C29.2388 7.44904 28.988 7.19804 28.6783 7.19804H12.2729C11.962 7.19804 11.71 7.44904 11.71 7.75869C11.71 8.06716 11.962 8.31816 12.2729 8.31816Z" fill="#2B9DD4"/>
<path d="M5.81055 5.59236V39.2438C5.81408 40.2126 6.60191 40.9973 7.57344 40.9996H33.3763C34.3502 40.9973 35.138 40.2126 35.1392 39.2438V5.59236C35.138 4.62237 34.3502 3.83771 33.3763 3.83654H24.8079C24.5253 1.45322 22.3573 -0.250992 19.9644 0.0305024C17.96 0.265081 16.3797 1.84027 16.143 3.83654H7.57344C6.60073 3.83771 5.81172 4.62237 5.81055 5.59236ZM34.011 39.2438C34.011 39.5945 33.726 39.8783 33.3739 39.8783H7.57344C7.22133 39.8783 6.93635 39.5945 6.93635 39.2438V11.0158H34.0157L34.011 39.2438ZM20.4754 1.10956C22.0699 1.11191 23.423 2.26838 23.6715 3.83654H17.2947C17.5408 2.27424 18.8868 1.11895 20.4754 1.10956ZM33.3763 4.95548C33.7295 4.95548 34.0157 5.24166 34.0157 5.59236V9.89452H6.93635V5.59236C6.93635 5.24166 7.22133 4.95548 7.57344 4.95548H33.3763Z" fill="#2B9DD4"/>
<path d="M17.175 17.1899H30.475C30.7848 17.1899 31.0368 16.9389 31.0368 16.6304C31.0368 16.3196 30.7848 16.0698 30.475 16.0698H17.175C16.8641 16.0698 16.6133 16.3196 16.6133 16.6304C16.6133 16.9389 16.8641 17.1899 17.175 17.1899Z" fill="#2B9DD4"/>
<path d="M17.175 23.0368H30.475C30.7848 23.0368 31.0368 22.7858 31.0368 22.4761C31.0368 22.1665 30.7848 21.9155 30.475 21.9155H17.175C16.8641 21.9155 16.6133 22.1665 16.6133 22.4761C16.6133 22.7858 16.8641 23.0368 17.175 23.0368Z" fill="#2B9DD4"/>
<path d="M17.175 28.8789H30.475C30.7848 28.8789 31.0368 28.6268 31.0368 28.3183C31.0368 28.0087 30.7848 27.7577 30.475 27.7577H17.175C16.8641 27.7577 16.6133 28.0087 16.6133 28.3183C16.6133 28.6268 16.8641 28.8789 17.175 28.8789Z" fill="#2B9DD4"/>
<path d="M17.175 34.72H30.475C30.7848 34.72 31.0368 34.4701 31.0368 34.1593C31.0368 33.8508 30.7848 33.601 30.475 33.601H17.175C16.8641 33.601 16.6133 33.8508 16.6133 34.1593C16.6133 34.4701 16.8641 34.72 17.175 34.72Z" fill="#2B9DD4"/>
<path d="M11.5645 17.5031C11.6529 17.6286 11.7883 17.7118 11.939 17.7353H12.0226C12.1463 17.7353 12.2676 17.6931 12.3677 17.6157L15.9512 14.8265C16.2209 14.6705 16.3127 14.3281 16.1573 14.0606C16.0018 13.792 15.6579 13.7006 15.3895 13.8566C15.3423 13.8824 15.3 13.9164 15.2623 13.9551L12.1451 16.3841L11.6011 15.6112C11.4232 15.3579 11.0723 15.2945 10.8179 15.4728C10.5636 15.6499 10.5 15.9994 10.679 16.2528L11.5645 17.5031Z" fill="#2B9DD4"/>
<path d="M11.5648 23.2631C11.6531 23.3886 11.7885 23.4731 11.9392 23.4965H12.0228C12.1465 23.4954 12.2678 23.4532 12.3679 23.3757L15.9514 20.5854C16.2034 20.4025 16.2564 20.0518 16.0715 19.8019C15.8878 19.5533 15.5357 19.4993 15.2849 19.6847C15.2766 19.6905 15.2672 19.6976 15.2589 19.7046L12.1453 22.136L11.6013 21.3631C11.4623 21.0863 11.1243 20.9737 10.8476 21.1109C10.5697 21.2493 10.4566 21.5859 10.5956 21.8639C10.6179 21.9073 10.645 21.9495 10.6792 21.9859L11.5648 23.2631Z" fill="#2B9DD4"/>
<path d="M11.564 29.0396C11.6523 29.164 11.7877 29.2472 11.9385 29.2707H12.0221C12.1457 29.2707 12.267 29.2285 12.3671 29.1511L15.9506 26.3608C16.2026 26.1766 16.2556 25.8259 16.0707 25.5773C15.887 25.3274 15.5349 25.2758 15.2841 25.4588C15.2758 25.4658 15.2664 25.4717 15.2582 25.4787L12.141 27.9031L11.5981 27.1302C11.4191 26.8768 11.0682 26.8147 10.8138 26.9918C10.5583 27.1701 10.4971 27.5196 10.6749 27.7729L11.564 29.0396Z" fill="#2B9DD4"/>
<path d="M11.5645 34.8818C11.6529 35.0061 11.7883 35.0906 11.939 35.114H12.0226C12.1463 35.1117 12.2676 35.0695 12.3677 34.9944L15.9512 32.2029C16.215 32.0387 16.2939 31.6915 16.129 31.43C15.9618 31.1673 15.6144 31.091 15.3518 31.2552C15.32 31.2752 15.2894 31.2986 15.2623 31.3256L12.1451 33.7535L11.6011 32.9805C11.4232 32.726 11.0723 32.665 10.8179 32.8421C10.5636 33.0193 10.5 33.3688 10.679 33.6221L11.5645 34.8818Z" fill="#2B9DD4"/>
</g>
<defs>
<clipPath id="clip0_29_2448">
<rect width="41" height="41" fill="white"/>
</clipPath>
</defs>
</svg>
