<svg width="111" height="111" viewBox="0 0 111 111" fill="none" xmlns="http://www.w3.org/2000/svg">
<path d="M101.184 23.3985C101.109 23.1372 100.964 22.9012 100.766 22.715C100.567 22.5289 100.323 22.3995 100.057 22.3406L90.7564 20.2394L88.6552 10.9388C88.5955 10.6739 88.4658 10.4299 88.2796 10.2323C88.0935 10.0347 87.8577 9.89066 87.5968 9.81527C87.336 9.73987 87.0597 9.73587 86.7968 9.80369C86.5339 9.8715 86.2941 10.0086 86.1022 10.2008L75.4055 20.8993C66.3537 15.4372 55.6158 13.4772 45.2181 15.3891C34.8203 17.3011 25.482 22.9527 18.9653 31.2774C12.4487 39.6022 9.20448 50.0243 9.84492 60.5769C10.4854 71.1296 14.9662 81.0828 22.4417 88.5584C29.9173 96.034 39.8706 100.515 50.4232 101.155C60.9758 101.796 71.3979 98.5514 79.7227 92.0348C88.0475 85.5181 93.6991 76.1798 95.611 65.7821C97.5229 55.3843 95.5629 44.6464 90.1008 35.5946L100.802 24.8936C100.993 24.7013 101.13 24.4612 101.197 24.1982C101.264 23.9353 101.26 23.6592 101.184 23.3985ZM93.2878 57.9603C93.2865 66.82 90.3616 75.4318 84.9666 82.4596C79.5717 89.4874 72.0083 94.5384 63.4498 96.8291C54.8913 99.1198 45.8161 98.5221 37.6319 95.1288C29.4477 91.7355 22.6121 85.7361 18.1854 78.0615C13.7588 70.3869 11.9885 61.466 13.1492 52.6826C14.3099 43.8992 18.3367 35.7443 24.605 29.483C30.8733 23.2217 39.0327 19.2039 47.8173 18.053C56.602 16.9021 65.521 18.6823 73.1907 23.1176L68.2781 28.0302C68.2359 28.0782 68.1968 28.1289 68.161 28.1819C61.0676 24.5706 52.9186 23.6078 45.1789 25.4666C37.4392 27.3254 30.6163 31.8838 25.9365 38.3226C21.2567 44.7614 19.027 52.6583 19.6481 60.5938C20.2693 68.5293 23.7005 75.9831 29.3251 81.6153C34.9497 87.2476 42.3988 90.6889 50.3334 91.3208C58.2681 91.9528 66.168 89.7338 72.6131 85.0628C79.0583 80.3918 83.626 73.5751 85.4953 65.8379C87.3646 58.1007 86.4129 49.9505 82.8113 42.8521C82.867 42.8127 82.9201 42.7696 82.97 42.7229L87.8826 37.8103C91.4302 43.9326 93.295 50.8844 93.2878 57.9603ZM79.2098 42.5989C82.9367 48.9612 84.2175 56.4635 82.8123 63.7018C81.4072 70.9402 77.4124 77.4184 71.5758 81.9241C65.7391 86.4298 58.4605 88.6541 51.1023 88.1808C43.744 87.7075 36.8104 84.569 31.5991 79.3527C26.3877 74.1363 23.2559 67.1997 22.7897 59.841C22.3234 52.4823 24.5548 45.2059 29.0661 39.3735C33.5774 33.5412 40.0595 29.5527 47.2992 28.1545C54.5389 26.7563 62.0399 28.0443 68.3986 31.7773L69.9968 38.857L68.4636 40.3902C63.8915 36.3752 57.9372 34.2957 51.8596 34.5913C45.782 34.8869 40.0575 37.5344 35.8966 41.9741C31.7356 46.4138 29.4643 52.2977 29.5629 58.3816C29.6614 64.4656 32.1222 70.2728 36.4247 74.5754C40.7273 78.878 46.5345 81.3387 52.6185 81.4372C58.7025 81.5358 64.5863 79.2645 69.026 75.1035C73.4657 70.9426 76.1132 65.2182 76.4088 59.1406C76.7044 53.063 74.6249 47.1086 70.6099 42.5365L72.1431 41.0033L79.2098 42.5989ZM59.5654 57.9603C59.5708 59.411 59.0944 60.8224 58.2109 61.9732C57.3275 63.1239 56.087 63.9487 54.6841 64.3183C53.2813 64.6878 51.7954 64.5812 50.4597 64.0151C49.124 63.449 48.014 62.4554 47.3039 61.1903C46.5939 59.9253 46.3239 58.4602 46.5364 57.0252C46.7489 55.5901 47.4318 54.2661 48.478 53.2611C49.5241 52.2561 50.8744 51.6268 52.3168 51.472C53.7593 51.3172 55.2123 51.6457 56.4479 52.4059L51.9663 56.8876C51.8214 57.0276 51.7058 57.1951 51.6263 57.3802C51.5468 57.5654 51.505 57.7646 51.5032 57.9661C51.5015 58.1676 51.54 58.3674 51.6163 58.5539C51.6927 58.7404 51.8054 58.9098 51.9479 59.0522C52.0904 59.1947 52.2599 59.3074 52.4464 59.3836C52.6329 59.4599 52.8328 59.4982 53.0343 59.4964C53.2358 59.4947 53.4349 59.4528 53.62 59.3732C53.8052 59.2936 53.9726 59.178 54.1126 59.033L58.5942 54.5514C59.2287 55.5752 59.565 56.7558 59.5654 57.9603ZM58.6323 50.2215C56.6771 48.8052 54.26 48.1777 51.8628 48.464C49.4655 48.7502 47.2642 49.9292 45.6974 51.766C44.1306 53.6028 43.3134 55.9625 43.4087 58.3749C43.504 60.7873 44.5047 63.0752 46.2115 64.7827C47.9183 66.4902 50.2058 67.4919 52.6182 67.5881C55.0305 67.6844 57.3906 66.8682 59.228 65.3021C61.0655 63.7361 62.2453 61.5352 62.5326 59.1381C62.8198 56.7409 62.1932 54.3236 60.7778 52.3678L68.4593 44.6862C71.9011 48.6849 73.6589 53.862 73.3633 59.1296C73.0676 64.3972 70.7415 69.3451 66.8738 72.9335C63.0061 76.5218 57.898 78.4712 52.6231 78.3718C47.3481 78.2725 42.317 76.1323 38.5871 72.4009C34.8573 68.6695 32.7191 63.6376 32.6219 58.3626C32.5247 53.0876 34.4761 47.9803 38.066 44.114C41.6559 40.2478 46.6048 37.9237 51.8725 37.6302C57.1402 37.3366 62.3167 39.0965 66.3139 42.54L58.6323 50.2215ZM87.1142 34.2861L81.4186 39.9809L80.5644 39.7884L80.5314 39.7806L72.9305 38.0696L71.0149 29.5859L86.3052 14.2931L88.0109 21.8428C88.0742 22.1227 88.2154 22.3789 88.4183 22.5818C88.6212 22.7847 88.8774 22.926 89.1573 22.9892L96.7071 24.695L87.1142 34.2861Z" fill="#9BDEFF"/>
</svg>
