<svg width="33" height="33" viewBox="0 0 33 33" fill="none" xmlns="http://www.w3.org/2000/svg">
<g clip-path="url(#clip0_55_1885)">
<path fill-rule="evenodd" clip-rule="evenodd" d="M16.5 0C25.613 0 33 7.38697 33 16.5C33 25.613 25.613 33 16.5 33C7.38697 33 0 25.613 0 16.5C0 7.38697 7.38697 0 16.5 0Z" fill="url(#paint0_linear_55_1885)"/>
<path d="M23.9264 10.5386L21.5771 22.3818C21.5771 22.3818 21.2484 23.203 20.3454 22.8091L14.9249 18.6532L12.9532 17.7006L9.63519 16.5836C9.63519 16.5836 9.12601 16.4025 9.07703 16.0087C9.0274 15.6142 9.65195 15.4009 9.65195 15.4009L22.8423 10.2266C22.8423 10.2266 23.9264 9.7503 23.9264 10.5386Z" fill="#FEFEFE"/>
<path d="M17.0414 20.5318L14.7334 22.6362C14.7334 22.6362 14.5535 22.7729 14.3557 22.6871C14.065 22.6452 13.2123 19.6056 12.6831 17.7919L13.1259 17.5103L17.0414 20.5318Z" fill="#B5D2E5"/>
<path d="M14.3557 22.6873C14.0411 22.6577 12.8449 18.3219 12.6831 17.7921L21.2573 12.3464C21.7033 12.0757 21.9418 12.2891 21.5577 12.6474C21.2928 12.8949 14.8223 18.7112 14.8223 18.7112L14.3557 22.6873Z" fill="#D3E7F2"/>
</g>
<defs>
<linearGradient id="paint0_linear_55_1885" x1="4.37186" y1="5.31223" x2="30.563" y2="25.1354" gradientUnits="userSpaceOnUse">
<stop stop-color="#28AAE0"/>
<stop offset="1" stop-color="#23B7EC"/>
</linearGradient>
<clipPath id="clip0_55_1885">
<rect width="33" height="33" fill="white"/>
</clipPath>
</defs>
</svg>
