<svg width="29" height="29" viewBox="0 0 29 29" fill="none" xmlns="http://www.w3.org/2000/svg">
<path d="M26.125 7.01436C25.2348 7.40312 24.292 7.65803 23.3272 7.7708C24.3399 7.17614 25.1014 6.23311 25.4695 5.11792C24.51 5.67644 23.4635 6.06983 22.3737 6.28167C21.9148 5.80098 21.3627 5.41882 20.7513 5.15851C20.1398 4.8982 19.4817 4.76519 18.8171 4.76761C16.1262 4.76761 13.9448 6.91699 13.9448 9.56511C13.9448 9.94036 13.9876 10.3073 14.0707 10.6576C12.1405 10.5658 10.2506 10.0727 8.5217 9.20962C6.79276 8.34658 5.26271 7.13261 4.02919 5.64517C3.59673 6.37477 3.36943 7.20766 3.37131 8.0558C3.37214 8.84901 3.57061 9.62951 3.94878 10.3268C4.32695 11.024 4.87291 11.6161 5.53731 12.0494C4.76482 12.0244 4.00903 11.8182 3.33094 11.4473V11.5067C3.33094 13.8318 5.01125 15.771 7.23781 16.2127C6.81935 16.3238 6.38825 16.38 5.95531 16.3802C5.64063 16.3802 5.33544 16.3505 5.03738 16.2911C5.35572 17.2505 5.96494 18.087 6.78041 18.6843C7.59588 19.2817 8.57713 19.6102 9.58787 19.6244C7.85421 20.9598 5.72591 21.6812 3.53756 21.6752C3.14331 21.6752 2.75619 21.6515 2.375 21.6087C4.60899 23.0227 7.19933 23.7715 9.84319 23.7676C18.8053 23.7676 23.7049 16.4562 23.7049 10.1161L23.6882 9.49505C24.644 8.82253 25.4697 7.98199 26.125 7.01436Z" fill="white"/>
</svg>
