<svg width="33" height="33" viewBox="0 0 33 33" fill="none" xmlns="http://www.w3.org/2000/svg">
<g clip-path="url(#clip0_55_1893)">
<path d="M0 33L2.838 24.4866C1.39795 22.0645 0.568965 19.2379 0.568965 16.2155C0.568965 7.26 7.82897 0 16.7845 0C25.74 0 33 7.26 33 16.2155C33 25.171 25.74 32.431 16.7845 32.431C14.0597 32.431 11.4937 31.7557 9.24 30.5688L0 33Z" fill="#2CB742"/>
<path d="M27.1299 21.6123C26.3812 20.1973 23.62 18.5791 23.62 18.5791C22.9953 18.223 22.2414 18.1831 21.8852 18.8181C21.8852 18.8181 20.988 19.894 20.7598 20.0488C19.7175 20.7548 18.7519 20.7275 17.7773 19.7529L15.5122 17.4878L13.2472 15.2228C12.2726 14.2482 12.2452 13.2826 12.9513 12.2403C13.1061 12.0121 14.182 11.1149 14.182 11.1149C14.817 10.7581 14.7771 10.0048 14.421 9.38009C14.421 9.38009 12.8028 6.6189 11.3878 5.87014C10.7858 5.55152 10.0468 5.66304 9.56542 6.14438L8.56517 7.14463C5.39205 10.3177 6.95443 13.9 10.1276 17.0731L13.0276 19.9731L15.9276 22.8731C19.1007 26.0462 22.6829 27.6086 25.856 24.4355L26.8563 23.4352C27.3376 22.9528 27.4486 22.2137 27.1299 21.6123Z" fill="white"/>
</g>
<defs>
<clipPath id="clip0_55_1893">
<rect width="33" height="33" fill="white"/>
</clipPath>
</defs>
</svg>
