<svg width="29" height="29" viewBox="0 0 29 29" fill="none" xmlns="http://www.w3.org/2000/svg">
<path d="M21.1518 5.95724H7.29719C4.57781 5.95724 2.375 8.13631 2.375 10.8248V17.6743C2.375 20.3628 4.579 22.5431 7.29719 22.5431H21.1518C23.8711 22.5431 26.0739 20.3628 26.0739 17.6743V10.8248C26.0739 8.13631 23.8699 5.95605 21.1518 5.95605V5.95724ZM17.8232 14.5821L11.343 17.6399C11.3035 17.6589 11.2598 17.6676 11.216 17.6652C11.1722 17.6628 11.1297 17.6494 11.0925 17.6262C11.0553 17.6029 11.0245 17.5707 11.0031 17.5324C10.9817 17.4941 10.9704 17.451 10.9701 17.4071V11.1027C10.9709 11.0586 10.9829 11.0154 11.0048 10.9772C11.0268 10.939 11.0581 10.9069 11.0958 10.884C11.1335 10.8612 11.1764 10.8482 11.2204 10.8463C11.2645 10.8445 11.3083 10.8538 11.3478 10.8735L17.8291 14.1213C17.8723 14.1428 17.9085 14.1761 17.9336 14.2173C17.9587 14.2585 17.9717 14.3059 17.9711 14.3541C17.9705 14.4024 17.9563 14.4495 17.9301 14.49C17.904 14.5305 17.8669 14.5628 17.8232 14.5832V14.5821Z" fill="white"/>
</svg>
